<svg width="29" height="28" viewBox="0 0 29 28" fill="none" xmlns="http://www.w3.org/2000/svg">
<path fill-rule="evenodd" clip-rule="evenodd" d="M11.2651 7.00039C11.2651 5.39877 12.5635 4.10039 14.1651 4.10039C15.7667 4.10039 17.0651 5.39877 17.0651 7.00039V7.56706H11.2651V7.00039ZM10.0651 8.76706V10.5004C10.0651 10.8318 10.3337 11.1004 10.6651 11.1004C10.9965 11.1004 11.2651 10.8318 11.2651 10.5004V8.76706H17.0651V10.5004C17.0651 10.8318 17.3337 11.1004 17.6651 11.1004C17.9965 11.1004 18.2651 10.8318 18.2651 10.5004V8.76706H20.6095L21.6838 22.7337H6.64637L7.72072 8.76706H10.0651ZM10.0651 7.56706V7.00039C10.0651 4.73602 11.9007 2.90039 14.1651 2.90039C16.4295 2.90039 18.2651 4.73602 18.2651 7.00039V7.56706H21.1651C21.4786 7.56706 21.7393 7.80844 21.7633 8.12104L22.93 23.2877C22.9428 23.4543 22.8856 23.6188 22.772 23.7414C22.6585 23.864 22.4989 23.9337 22.3318 23.9337H5.99844C5.83131 23.9337 5.67176 23.864 5.55821 23.7414C5.44465 23.6188 5.38739 23.4543 5.40021 23.2877L6.56687 8.12104C6.59092 7.80844 6.85158 7.56706 7.16511 7.56706H10.0651Z" fill="black"/>
</svg>
