<svg viewBox="0 0 25 12.6865" xmlns="http://www.w3.org/2000/svg" xmlns:xlink="http://www.w3.org/1999/xlink" width="25.000000" height="12.686523" fill="none" customFrame="#000000">
	<g id="Group 183303">
		<path id="Vector" d="M4.76278 2.46125L1.74282 3.57839C0.695733 3.966 0 4.96746 0 6.08739L0 14.0962C0 14.51 0.219363 14.892 0.576292 15.0991L0.680397 15.1597C0.411305 14.9671 0.236094 14.6476 0.236094 14.2898C0.236094 13.8602 0.488454 13.4913 0.850496 13.3205C0.910913 13.2874 9.0859 10.27 9.0859 10.27L11.9748 9.20043C12.4014 9.04231 12.6845 8.63464 12.6845 8.17846L12.6845 1.09038C12.6845 0.331939 11.932 -0.194209 11.2233 0.0683984L4.76231 2.46172L4.76278 2.46125Z" fill="rgb(0,102,207)" fill-rule="nonzero" transform="matrix(-4.37114e-08,-1,1,-4.37114e-08,5.81055,12.6836)" />
		<path id="Vector" d="M12.6845 0.783085L12.6845 2.85363C12.6845 3.18387 12.4814 3.47586 12.1742 3.59154L2.74296 7.08801L2.73739 7.08801L0.0274204 8.08993C0.0162663 8.09552 0 8.08433 0 8.0736L0 4.90178C0 4.57667 0.208674 4.27955 0.515874 4.16947L0.812386 4.05939L11.6309 0.0507683C12.1412 -0.141873 12.6845 0.237812 12.6845 0.783085Z" fill="rgb(0,102,207)" fill-rule="nonzero" transform="matrix(-4.37114e-08,-1,1,-4.37114e-08,0,12.6836)" />
		<path id="Vector" d="M8.01604 6.12394L6.85277 5.44107L2.74343 3.02909L2.73785 3.02909L0.894182 1.93854C0.888605 1.93294 0.883028 1.93294 0.877916 1.93294L0.801232 1.8891L0.680397 1.81773C0.67482 1.81773 0.67482 1.81213 0.669243 1.80654C0.405728 1.6139 0.235629 1.29998 0.235629 0.947348C0.235629 0.534545 0.471723 0.170718 0.811921 0L0.515875 0.110081C0.205885 0.225292 0 0.521951 0 0.853592L0 3.95358C0 4.72741 0.408982 5.4434 1.07497 5.83428L3.09478 7.02045C3.40756 7.20749 3.5995 7.5382 3.5995 7.90156L3.5995 11.3598C3.5995 12.1471 2.74901 12.643 2.06861 12.2409L1.15351 11.7049C0.174747 11.1326 5.77895e-16 10.3434 5.77895e-16 9.33261L5.77895e-16 15.8157C5.77895e-16 16.2341 0.219363 16.625 0.576292 16.8507L1.6903 17.5005L7.27011 20.7768C8.07134 21.2446 9.08636 20.6667 9.08636 19.7306L9.08636 7.99578C9.08636 7.22475 8.68017 6.50876 8.0165 6.12347L8.01604 6.12394Z" fill="rgb(0,157,255)" fill-rule="nonzero" transform="matrix(-4.37114e-08,-1,1,-4.37114e-08,4.05762,12.6865)" />
	</g>
</svg>
