<svg width="153.000000" height="34.357910" viewBox="0 0 153 34.3579" fill="none" xmlns="http://www.w3.org/2000/svg" xmlns:xlink="http://www.w3.org/1999/xlink">
	<desc>
			Created with Pixso.
	</desc>
	<defs/>
	<path id="Vector" d="M65.2 10.76C62.77 10.76 60.43 11.33 58.84 12.85C58.83 12.86 58.82 12.87 58.8 12.88C57.2 14.65 57.14 16.72 58.03 18.19C58.91 19.67 60.69 20.58 62.6 20.2C62.6 20.2 62.6 20.2 62.61 20.2C63.77 20.09 64.57 19.29 64.83 18.42C64.96 17.98 64.96 17.52 64.78 17.11C64.6 16.71 64.25 16.39 63.74 16.24C63.73 16.23 63.73 16.23 63.72 16.23C62.71 16.05 62.16 15.56 61.92 14.99C61.67 14.42 61.74 13.75 62.03 13.21C62.03 13.21 62.03 13.21 62.03 13.21C62.31 12.68 63.34 12.13 64.49 12.04C65.64 12.05 66.45 12.29 66.95 12.67L66.93 12.64C66.94 12.66 66.95 12.67 66.97 12.68C66.97 12.68 66.97 12.69 66.98 12.69L66.97 12.68L66.97 12.69C67.5 13.07 67.85 13.67 68.02 14.57C68.2 15.5 68.29 16.73 68.29 18.24L68.29 20.85L64.82 20.96C61.16 21.07 58.4 21.64 56.5 22.74C54.62 23.84 53.63 25.6 53.63 27.83C53.63 29.82 54.39 31.47 55.86 32.63C55.87 32.63 55.87 32.64 55.88 32.65C55.88 32.65 55.88 32.65 55.89 32.66C57.4 33.79 59.41 34.34 61.86 34.34C63.06 34.34 64.16 34.17 65.16 33.82C66.19 33.48 67.09 32.94 67.83 32.21C67.84 32.2 67.85 32.19 67.86 32.18L67.86 32.17L67.86 32.17C68.2 31.82 68.48 31.41 68.73 30.97C68.78 31.48 68.89 31.96 69.1 32.35C69.41 32.91 69.92 33.32 70.56 33.57C71.17 33.81 71.91 33.91 72.8 33.93L76.46 33.93C76.59 33.93 76.69 33.83 76.69 33.7L76.69 32.83C76.69 32.71 76.59 32.6 76.46 32.6L76.1 32.6C75.44 32.6 74.92 32.52 74.55 32.38C74.2 32.25 73.99 32.07 73.86 31.79C73.71 31.5 73.62 31.06 73.62 30.45L73.62 18.24C73.62 15.56 72.85 13.56 71.27 12.39C70.16 11.56 68.66 11.06 66.81 10.84L66.81 10.84C66.43 10.81 66.06 10.79 65.69 10.77C65.52 10.76 65.36 10.76 65.2 10.76ZM68.28 22.21L68.28 27.61C68.28 28.54 68.06 29.38 67.6 30.18C64.73 34.16 59.3 31.9 59.09 28.25C59.02 25.93 59.84 24.52 61.08 23.63C62.33 22.75 64.04 22.39 65.73 22.31L68.28 22.21Z" fill="#000000" fill-opacity="1.000000" fill-rule="nonzero"/>
	<path id="Vector" d="M95.12 10.72C91.7 10.72 88.98 11.73 87.06 13.76C85.13 15.8 84.2 18.81 84.2 22.7C84.2 26.32 85.21 29.22 87.25 31.27C89.33 33.33 92.21 34.34 95.82 34.34L95.83 34.34C100.75 34.17 103.59 31.46 105.78 27.95C107.97 24.43 109.57 20.12 112.07 16.61C113.23 15.02 114.78 13.5 116.42 12.75C117.12 12.45 117.88 12.27 118.8 12.27C120.57 12.27 121.68 12.77 122.34 13.74C123.03 14.76 123.39 16.11 123.39 17.81L123.39 30.48C123.39 31.22 123.54 31.85 123.82 32.36C124.13 32.93 124.64 33.35 125.29 33.59C125.89 33.82 126.63 33.93 127.53 33.95L132.27 33.95C132.4 33.95 132.5 33.84 132.5 33.72L132.5 32.85C132.5 32.72 132.4 32.62 132.27 32.62L131.81 32.62C130.98 32.62 130.33 32.52 129.87 32.33C129.47 32.13 129.2 31.84 129.02 31.39C128.84 30.94 128.72 30.24 128.72 29.32L128.72 19.21C128.72 16.33 128 14.15 126.5 12.78C125.04 11.4 122.84 10.74 119.99 10.74C117.15 10.65 115.01 11.74 113.15 13.32C113.09 13.11 113.02 12.91 112.93 12.73C112.62 12.17 112.11 11.75 111.46 11.51C110.86 11.27 110.12 11.16 109.22 11.15L104.28 11.15C104.16 11.15 104.06 11.25 104.06 11.38L104.06 12.25C104.06 12.37 104.16 12.47 104.28 12.47L104.75 12.47C105.68 12.47 106.38 12.6 106.82 12.81C106.83 12.81 106.83 12.81 106.83 12.81L106.84 12.81L106.84 12.81C106.84 12.81 106.84 12.81 106.84 12.81C107.28 12.99 107.55 13.26 107.72 13.71C107.72 13.71 107.73 13.71 107.73 13.72L107.73 13.72L107.74 13.73L107.74 13.74C107.94 14.16 108.07 14.82 108.07 15.7L108.07 20.6C106.78 23.51 105.21 26.78 103.34 28.93L103.33 28.93C101.35 31.31 98.92 32.9 95.85 33.04C92.78 33.06 91 30.94 90.35 28.52C89.95 26.99 89.73 24.93 89.68 22.41L105.14 22.41C105.26 22.41 105.36 22.3 105.36 22.18L105.36 20.97C105.36 17.64 104.44 15.05 102.58 13.32C100.84 11.68 98.49 10.85 95.59 10.76C95.55 10.74 95.51 10.73 95.47 10.73L95.12 10.72ZM94.94 12.06L95.06 12.06C96.2 12.06 97.07 12.36 97.73 12.96L97.71 12.94C97.72 12.95 97.73 12.96 97.73 12.97C97.74 12.97 97.74 12.97 97.75 12.97L97.74 12.97C98.39 13.54 98.91 14.49 99.25 15.87C99.55 17.16 99.71 18.91 99.74 21.06L89.75 21.06C89.89 18.93 90.13 17.18 90.5 15.9C90.89 14.52 91.46 13.56 92.18 12.98C92.18 12.98 92.19 12.97 92.2 12.97L92.19 12.98C92.89 12.39 93.79 12.08 94.94 12.06ZM113.18 17.26L113.14 17.26C112.97 17.28 112.93 17.37 112.86 17.47C111.23 19.53 109.34 22.96 108.12 25.84L108.1 25.88C108.09 25.91 108.08 25.94 108.08 25.98L108.08 29.32C108.08 30.23 107.96 30.92 107.75 31.37L107.75 31.37C107.74 31.38 107.74 31.38 107.74 31.39L107.74 31.39C107.56 31.83 107.28 32.12 106.81 32.32C106.32 32.51 105.6 32.62 104.66 32.62L104.06 32.62C103.94 32.62 103.84 32.72 103.84 32.85L103.84 33.72C103.84 33.84 103.94 33.95 104.06 33.95L117.2 33.95C117.32 33.95 117.42 33.84 117.42 33.72L117.42 32.85C117.42 32.72 117.32 32.61 117.2 32.61L116.73 32.61C115.83 32.61 115.13 32.5 114.64 32.32C114.21 32.12 113.91 31.82 113.71 31.38C113.52 30.92 113.41 30.23 113.41 29.31L113.41 20.23L113.46 18C113.48 17.82 113.49 17.66 113.45 17.5C113.43 17.45 113.42 17.41 113.38 17.36C113.33 17.31 113.25 17.26 113.18 17.26Z" fill="#000000" fill-opacity="1.000000" fill-rule="nonzero"/>
	<path id="Vector" d="M15.63 3.45C12.15 3.45 9.22 4.11 6.87 5.43C4.57 6.73 2.83 8.55 1.69 10.9C0.56 13.23 0 15.93 0 18.98C0 21.98 0.54 24.63 1.62 26.93L1.62 26.94L1.64 26.99C2.78 29.3 4.49 31.12 6.73 32.41C8.98 33.71 11.77 34.35 15.06 34.35C16.55 34.26 18.19 34.2 19.5 33.89C20.75 33.58 21.82 33.18 22.69 32.66C23.54 32.14 24.2 31.6 24.66 30.99L24.66 30.98C25.11 30.36 25.36 29.72 25.36 29.08C25.36 28.62 25.24 28.2 24.99 27.86C24.73 27.5 24.34 27.25 23.87 27.09L23.44 26.94L23.3 27.38C22.66 29.42 21.72 30.84 20.5 31.72C19.3 32.58 17.69 33.03 15.62 33.03C13.33 33.03 11.52 32.5 10.13 31.48C8.78 30.46 7.76 28.93 7.09 26.82L7.09 26.82C6.45 24.7 6.12 22.02 6.12 18.79C6.12 15.66 6.43 13.06 7.04 11C7.65 8.92 8.61 7.39 9.9 6.37C11.19 5.36 12.88 4.84 15.01 4.84C16.37 4.84 17.45 5.06 18.24 5.48L18.25 5.48C19.46 6.1 19.73 6.71 19.87 7.49C20.02 8.27 19.99 9.24 20.53 10.34C21.21 11.67 22.54 12.01 23.65 11.64C24.77 11.26 25.7 10.19 25.68 8.77C25.68 7.77 25.1 6.73 24.27 5.96C23.48 5.18 22.35 4.58 20.89 4.14C19.57 3.72 17.98 3.51 16.13 3.47L16.14 3.46L15.63 3.45Z" fill="#000000" fill-opacity="1.000000" fill-rule="nonzero"/>
	<path id="Vector" d="M83.16 0.59C80.67 0.66 79.05 1.52 78.07 2.72C77.09 3.91 76.74 5.41 76.72 6.71L76.72 7.04L76.72 8.64L76.72 10.23L76.71 10.23L76.71 29.89C76.71 30.58 76.59 31.09 76.39 31.47L76.39 31.47C76.2 31.83 75.89 32.09 75.4 32.28C74.91 32.47 74.2 32.58 73.29 32.58L72.47 32.58C72.34 32.58 72.24 32.68 72.24 32.81L72.24 33.68C72.24 33.81 72.34 33.91 72.47 33.91L86.3 33.91C86.42 33.91 86.52 33.81 86.52 33.68L86.52 32.81C86.52 32.68 86.42 32.58 86.3 32.58L85.46 32.58C84.55 32.58 83.85 32.47 83.36 32.28C82.88 32.1 82.58 31.83 82.37 31.44C82.17 31.04 82.05 30.46 82.05 29.69L82.05 11.06L82.05 10.08C84.58 10.53 86.25 9.99 87.25 9C88.28 7.98 88.59 6.51 88.52 5.27C88.36 2.57 86.07 0.59 83.17 0.59L83.16 0.59ZM76.72 7.04C72.85 6.08 56.14 -1.68 46.79 0.33C44.94 0.75 43.34 1.63 42.49 3.29C41.9 4.44 41.77 5.5 42.3 6.79C42.58 7.41 43.06 7.96 43.77 8.37C43.77 8.37 43.77 8.38 43.78 8.38C45.05 9.04 46.33 8.89 47.2 8.3C48.06 7.71 48.53 6.65 48.13 5.6C48.12 5.58 48.11 5.56 48.1 5.55C47.76 5.07 47.63 4.67 47.62 4.36C47.61 4.04 47.72 3.78 47.93 3.55C50.97 -0.51 69.69 5.86 76.71 8.64L76.72 7.04ZM84.6 3.58C85.47 3.61 86.01 3.97 86.35 4.46C86.69 4.95 86.82 5.58 86.8 6.1C86.77 6.94 86.4 7.73 85.62 8.23C84.87 8.72 83.7 8.93 82.05 8.57L82.05 7.74C82.05 6.8 82.17 5.74 82.52 4.95C82.88 4.15 83.43 3.62 84.43 3.59C84.49 3.58 84.55 3.58 84.6 3.58Z" fill="#000000" fill-opacity="1.000000" fill-rule="nonzero"/>
	<path id="Vector" d="M141.5 10.76C139.08 10.76 136.73 11.33 135.15 12.85C135.13 12.86 135.13 12.87 135.11 12.88C133.51 14.65 133.45 16.72 134.33 18.19C135.22 19.67 137 20.58 138.91 20.2C138.91 20.2 138.91 20.2 138.92 20.2C140.08 20.09 140.88 19.29 141.14 18.42C141.27 17.98 141.27 17.52 141.09 17.11C140.91 16.71 140.56 16.39 140.05 16.24C140.04 16.23 140.04 16.23 140.03 16.23C139.01 16.05 138.47 15.56 138.23 14.99C137.98 14.42 138.04 13.75 138.34 13.21C138.34 13.21 138.34 13.21 138.34 13.21C138.61 12.68 139.64 12.13 140.79 12.04C141.94 12.05 142.75 12.29 143.25 12.67L143.23 12.64C143.24 12.66 143.26 12.67 143.27 12.68C143.28 12.68 143.28 12.69 143.28 12.69C143.81 13.07 144.15 13.67 144.33 14.57C144.5 15.5 144.6 16.73 144.6 18.24L144.6 20.85L141.12 20.96C137.47 21.07 134.71 21.64 132.81 22.74C130.93 23.84 129.94 25.6 129.94 27.83C129.94 29.82 130.7 31.47 132.17 32.63C132.18 32.63 132.18 32.64 132.19 32.65C132.19 32.65 132.19 32.65 132.19 32.66C133.7 33.79 135.71 34.34 138.17 34.34C139.37 34.34 140.47 34.17 141.47 33.82C142.5 33.48 143.4 32.94 144.14 32.21C144.15 32.2 144.16 32.19 144.17 32.18L144.17 32.17L144.17 32.17C144.5 31.82 144.78 31.41 145.03 30.97C145.09 31.48 145.19 31.96 145.41 32.35C145.71 32.91 146.23 33.32 146.87 33.57C147.47 33.81 148.22 33.91 149.11 33.93L152.77 33.93C152.89 33.93 153 33.83 153 33.7L153 32.83C153 32.71 152.89 32.6 152.77 32.6L152.4 32.6C151.75 32.6 151.23 32.52 150.86 32.38C150.5 32.25 150.3 32.07 150.17 31.79C150.02 31.5 149.93 31.06 149.93 30.45L149.93 18.24C149.93 15.56 149.16 13.56 147.58 12.39C146.46 11.56 144.97 11.06 143.12 10.84L143.11 10.84C142.74 10.81 142.37 10.79 142 10.77C141.83 10.76 141.67 10.76 141.5 10.76ZM144.59 22.21L144.59 27.61C144.59 28.54 144.37 29.38 143.9 30.18C141.03 34.16 135.61 31.9 135.4 28.25C135.33 25.93 136.15 24.52 137.39 23.63C138.64 22.75 140.35 22.39 142.03 22.31L144.59 22.21Z" fill="#000000" fill-opacity="1.000000" fill-rule="nonzero"/>
	<path id="Vector" d="M49.97 6.07C49.86 6.07 49.77 6.15 49.75 6.25L49.7 6.43C49.49 7.31 49.2 8.06 48.82 8.66C48.82 8.66 48.82 8.66 48.81 8.67C48.47 9.26 48.03 9.71 47.46 10.06C47.46 10.06 47.46 10.06 47.45 10.06C46.91 10.41 46.24 10.68 45.43 10.86C44.65 11.01 43.71 11.1 42.6 11.1L42.37 11.1C42.25 11.1 42.15 11.2 42.15 11.32L42.15 12.2C42.15 12.32 42.25 12.42 42.37 12.42L45.73 12.42L45.73 27.52C45.73 29.94 46.28 31.74 47.49 32.81C47.5 32.82 47.5 32.82 47.5 32.82C48.68 33.82 50.47 34.27 52.78 34.3C52.79 34.31 52.79 34.31 52.8 34.31L53.02 34.31C53.8 34.31 54.61 34.24 55.45 34.1C56.29 33.96 56.92 33.81 57.38 33.62L57.53 33.57C57.61 33.53 57.67 33.45 57.67 33.35L57.67 32.47C57.67 32.32 57.53 32.21 57.38 32.25L57.09 32.34C56.57 32.5 56.08 32.62 55.63 32.7C55.18 32.77 54.75 32.82 54.34 32.82C53.2 32.82 52.43 32.5 51.89 31.91C51.36 31.31 51.07 30.38 51.07 29.03L51.07 12.43L57.45 12.43C57.57 12.43 57.67 12.33 57.67 12.2L57.67 11.33C57.67 11.2 57.57 11.1 57.45 11.1L51.07 11.1L51.07 6.3C51.07 6.18 50.97 6.07 50.85 6.07L49.97 6.07Z" fill="#000000" fill-opacity="1.000000" fill-rule="nonzero"/>
	<path id="Vector" d="M34.98 10.76C32.55 10.76 30.21 11.33 28.62 12.85C28.61 12.86 28.6 12.87 28.59 12.88C26.99 14.65 26.93 16.72 27.81 18.19C28.7 19.67 30.48 20.58 32.38 20.2C32.39 20.2 32.39 20.2 32.39 20.2C33.55 20.09 34.36 19.29 34.62 18.42C34.75 17.98 34.75 17.52 34.57 17.11C34.39 16.71 34.03 16.39 33.53 16.24C33.52 16.23 33.51 16.23 33.51 16.23C32.49 16.05 31.94 15.56 31.7 14.99C31.46 14.42 31.52 13.75 31.81 13.21C31.81 13.21 31.81 13.21 31.81 13.21C32.09 12.68 33.12 12.13 34.27 12.04C35.42 12.05 36.23 12.29 36.73 12.67L36.71 12.64C36.72 12.66 36.73 12.67 36.75 12.68C36.75 12.68 36.75 12.69 36.76 12.69L36.75 12.68L36.75 12.69C37.28 13.07 37.63 13.67 37.8 14.57C37.98 15.5 38.07 16.73 38.07 18.24L38.07 20.85L34.6 20.96C30.94 21.07 28.18 21.64 26.28 22.74C24.4 23.84 23.41 25.6 23.41 27.83C23.41 29.82 24.17 31.47 25.64 32.63C25.65 32.63 25.65 32.64 25.66 32.65C25.66 32.65 25.66 32.65 25.67 32.66C27.18 33.79 29.19 34.34 31.64 34.34C32.85 34.34 33.95 34.17 34.94 33.82C35.97 33.48 36.87 32.94 37.61 32.21C37.62 32.2 37.63 32.19 37.64 32.18L37.64 32.17L37.64 32.17C37.98 31.82 38.26 31.41 38.51 30.97C38.57 31.48 38.67 31.96 38.88 32.35C39.19 32.91 39.7 33.32 40.34 33.57C40.95 33.81 41.69 33.91 42.58 33.93L46.24 33.93C46.37 33.93 46.47 33.83 46.47 33.7L46.47 32.83C46.47 32.71 46.37 32.6 46.24 32.6L45.88 32.6C45.22 32.6 44.7 32.52 44.33 32.38C43.98 32.25 43.77 32.07 43.64 31.79C43.49 31.5 43.4 31.06 43.4 30.45L43.4 18.24C43.4 15.56 42.63 13.56 41.05 12.39C39.94 11.56 38.44 11.06 36.59 10.84L36.59 10.84C36.21 10.81 35.84 10.79 35.47 10.77C35.31 10.76 35.15 10.76 34.98 10.76ZM38.07 22.21L38.07 27.61C38.07 28.54 37.84 29.38 37.38 30.18C34.51 34.16 29.08 31.9 28.87 28.25C28.81 25.93 29.63 24.52 30.87 23.63C32.12 22.75 33.83 22.39 35.51 22.31L38.07 22.21Z" fill="#000000" fill-opacity="1.000000" fill-rule="nonzero"/>
</svg>
