<svg width="196.001953" height="68.207001" viewBox="0 0 196.002 68.207" fill="none" xmlns="http://www.w3.org/2000/svg" xmlns:xlink="http://www.w3.org/1999/xlink">
	<desc>
			Created with Pixso.
	</desc>
	<defs/>
	<mask id="mask30_1122" mask-type="alpha" maskUnits="userSpaceOnUse" x="0.000000" y="0.000000" width="196.001953" height="68.207001">
		<path id="Rectangle 38472" d="M0 0L196 0L196 68.2L0 68.2L0 0Z" fill="#000000" fill-opacity="1.000000" fill-rule="evenodd"/>
	</mask>
	<g mask="url(#mask30_1122)">
		<path id="Path 57180" d="M73.02 47.56C72.64 47.59 72.26 47.49 71.95 47.27C71.79 47.11 71.61 46.99 71.41 46.9C71.37 46.88 71.33 46.85 71.29 46.82C70.81 46.41 70.44 45.89 70.22 45.3C69.92 44.69 69.75 44.03 69.72 43.36C69.73 43.24 69.74 43.11 69.77 42.99C69.79 42.91 69.81 42.83 69.81 42.74C70.19 40.85 71.51 38.8 73.76 36.61C75.49 34.93 77.02 34.1 78.37 34.1C79.26 34.16 80.1 34.49 80.8 35.04C81.57 35.67 82.13 36.52 82.4 37.47L82.53 37.43C83.23 36.93 84.05 36.63 84.92 36.57C85.55 36.57 86.09 37.08 86.56 38.09C86.74 38.55 86.82 39.04 86.81 39.53C86.81 39.72 86.79 40 86.77 40.36C86.74 40.71 86.73 41.66 86.73 43.2L87.06 43.11C88.67 42.95 90.69 41.44 93.11 38.59C93.41 38.09 93.84 37.68 94.34 37.39L94.8 37.35C95.26 37.35 95.5 37.83 95.5 38.79C95.5 39.45 94.6 40.95 92.82 43.28C90.95 45.72 89.4 46.94 88.17 46.94C87.79 46.94 87.42 46.82 87.1 46.61C85.34 45.52 84.39 43.43 84.26 40.36C81.54 42.54 78.71 44.59 75.78 46.49C74.96 47.07 74.01 47.44 73.02 47.56ZM73.31 46.61C74.13 46.61 76.49 45.17 80.39 42.29C81.35 41.63 82.55 40.73 84.01 39.57C84.09 39.52 84.19 39.45 84.3 39.37C83.32 39.89 82.39 40.51 81.54 41.22C79.18 43 76.72 44.64 74.17 46.12C73.59 46.37 73.31 46.53 73.31 46.61ZM73.43 43.11L73.64 43.07C76.41 41.43 78.96 39.83 81.29 38.3C81.27 37.96 81.17 37.64 81 37.35C80.69 37.24 80.35 37.19 80.02 37.23C78.01 37.42 76.01 39.04 74.01 42.09L73.39 43.07L73.39 43.12L73.43 43.11ZM75.45 38.79L75.98 38.42C76.73 37.73 77.59 37.17 78.53 36.77C78.71 36.72 78.88 36.64 79.03 36.53L78.78 36.53C78.53 36.61 78.19 36.73 77.75 36.9C77.36 37.12 76.99 37.37 76.64 37.64C76.55 37.76 76.44 37.85 76.31 37.93C75.73 38.39 75.45 38.67 75.45 38.75L75.45 38.79ZM88.41 46.04C88.88 46.04 89.63 45.57 90.67 44.64C90.76 44.55 90.85 44.45 90.92 44.35C91.09 44.18 91.17 44.09 91.17 44.06C90.37 44.69 89.51 45.26 88.62 45.75C88.43 45.84 88.33 45.9 88.33 45.96C88.33 45.97 88.33 45.98 88.33 45.99C88.34 46 88.34 46.01 88.35 46.02C88.36 46.03 88.37 46.03 88.38 46.04C88.39 46.04 88.4 46.04 88.41 46.04L88.41 46.04Z" fill="#000000" fill-opacity="1.000000" fill-rule="nonzero"/>
		<path id="Path 57181" d="M65.36 65.81C65 65.79 64.66 65.69 64.35 65.52C64.05 65.35 63.78 65.11 63.59 64.82C62.41 63.61 61.46 59.96 60.75 53.87C60.61 52.55 60.54 50.4 60.54 47.4L60.54 44.98C60.57 44.84 60.61 44.43 60.66 43.74C60.66 43.57 60.68 43.41 60.71 43.25C61.05 39.27 61.72 35.33 62.72 31.47C64.17 25.02 66.71 18.86 70.26 13.27C72.23 10.34 73.69 8.87 74.62 8.87C74.68 8.87 74.74 8.88 74.8 8.9C74.85 8.92 74.91 8.95 74.95 9C75.03 9.11 75.21 9.16 75.48 9.16C75.75 9.18 76 9.3 76.18 9.49C76.54 9.83 76.83 10.23 77.02 10.69C77.21 11.14 77.31 11.63 77.3 12.12C77.3 15.17 74.76 22.31 69.68 33.53C68.63 36.13 67.34 38.63 65.81 40.98C65.1 41.8 64.74 45.33 64.74 51.56C64.74 52.38 64.78 53.99 64.86 56.38C64.91 58.75 65.23 61.11 65.81 63.42C65.95 64.08 66.07 64.41 66.18 64.41C66.24 64.4 66.29 64.39 66.35 64.36L66.51 64.28C66.56 64.23 66.62 64.19 66.68 64.16L66.84 64.08C66.9 64.07 66.95 64.08 67 64.1C67.05 64.12 67.1 64.16 67.13 64.2C67.21 64.31 67.25 64.44 67.25 64.57C67.22 64.82 67.11 65.06 66.92 65.23C66.71 65.43 66.47 65.58 66.2 65.68C65.93 65.78 65.64 65.82 65.36 65.81L65.36 65.81ZM63.92 45.59L63.92 45.31L63.88 45.22C63.85 45.24 63.84 45.27 63.83 45.31L63.83 45.55C63.83 45.56 63.83 45.56 63.84 45.57C63.84 45.57 63.84 45.58 63.84 45.58C63.85 45.59 63.85 45.59 63.86 45.59C63.86 45.59 63.87 45.59 63.88 45.59L63.92 45.59ZM63.96 44.4C64.01 44.4 64.03 44.28 64 44.03L63.96 43.99L63.96 44.4ZM64.04 43.33C64.05 43.33 64.07 43.32 64.08 43.32C64.09 43.31 64.1 43.3 64.1 43.29C64.12 43.23 64.12 43.18 64.12 43.12L64.08 42.92L64.08 42.96C64.05 42.99 64.04 43.01 64.04 43.02L64.04 43.33ZM64.16 42.3L64.2 42.14L64.16 41.97L64.16 42.3ZM64.45 39.95C64.48 39.95 64.49 39.93 64.49 39.89L64.49 39.62L64.45 39.58L64.45 39.62C64.42 39.65 64.41 39.67 64.41 39.69L64.41 39.89C64.41 39.93 64.42 39.95 64.45 39.95ZM64.57 39.25C64.59 39.24 64.6 39.23 64.6 39.22C64.61 39.2 64.61 39.19 64.62 39.17L64.62 39.09L64.57 38.93C64.55 38.93 64.53 38.93 64.53 38.95L64.53 39.21C64.53 39.22 64.53 39.23 64.53 39.23C64.54 39.24 64.54 39.24 64.54 39.24C64.55 39.25 64.55 39.25 64.56 39.25C64.56 39.26 64.57 39.25 64.57 39.25ZM64.66 38.6L64.7 38.43L64.66 38.23L64.66 38.6ZM64.74 37.98L64.78 37.86L64.74 37.65L64.74 37.98ZM64.82 37.4L64.99 36.7L65.36 34.85C67.41 24.7 70.41 17.14 74.33 12.17C74.74 11.7 74.95 11.41 74.95 11.3L74.91 11.26C74.71 11.26 74.1 12.04 73.05 13.61C69.51 19.04 66.91 26.1 65.23 34.77C65.16 35.36 65.05 35.96 64.9 36.54C64.85 36.77 64.82 37 64.82 37.24L64.82 37.4ZM67.95 31.89L69.27 28.59C71.49 23.48 73.32 18.21 74.74 12.83C74.23 13.43 73.77 14.07 73.38 14.76C70.47 19.64 68.21 25.87 66.59 33.45C66.56 33.59 66.54 33.72 66.51 33.86C66.35 34.55 66.22 35.25 66.14 35.96C66.14 35.97 66.14 35.97 66.14 35.98C66.14 35.98 66.14 35.99 66.15 35.99C66.15 36 66.16 36 66.16 36C66.17 36 66.17 36 66.18 36C66.23 36 66.82 34.63 67.95 31.89L67.95 31.89Z" fill="#000000" fill-opacity="1.000000" fill-rule="nonzero"/>
		<path id="Path 57182" d="M101.84 48.78C101.69 48.79 101.55 48.76 101.42 48.7C101.24 48.63 101.04 48.6 100.85 48.62C100.27 48.52 99.73 48.26 99.28 47.88C98.78 47.61 98.37 47.21 98.08 46.72C97.79 46.24 97.64 45.68 97.64 45.12C97.76 42.26 98.24 39.42 99.08 36.68C99.5 34.98 100.09 33.32 100.85 31.74C100.93 31.56 101.05 31.41 101.21 31.31C101.37 31.2 101.56 31.13 101.75 31.12L102.16 31.12C102.52 31.21 102.83 31.42 103.07 31.7C103.42 32.08 103.61 32.58 103.6 33.1C103.57 34.06 103.47 35.03 103.31 35.98C102.79 39.44 102.53 41.42 102.53 41.91C102.53 41.95 102.54 41.99 102.55 42.03C102.56 42.04 102.57 42.05 102.58 42.06C102.59 42.07 102.6 42.07 102.62 42.07C102.7 42.07 103.01 41.72 103.56 41C104.69 39.63 105.89 38.26 107.18 36.89C108.06 35.91 109 34.99 109.98 34.13C110.32 33.92 110.7 33.81 111.1 33.8C111.72 33.85 112.33 34.06 112.84 34.42C113.36 34.79 113.76 35.28 114.02 35.86C114.34 36.94 114.47 38.07 114.39 39.19C114.39 39.71 114.35 40.4 114.27 41.25C115.53 39.94 116.7 38.55 117.77 37.09C118.15 36.62 118.49 36.2 118.8 35.81C118.98 35.57 119.17 35.34 119.37 35.11C119.5 34.98 119.65 34.86 119.82 34.79C119.99 34.71 120.17 34.67 120.36 34.66C121.16 34.66 121.79 35.25 122.25 36.43C122.32 36.83 122.35 37.23 122.34 37.63C122.34 38.28 122.29 39.16 122.21 40.26C122.21 40.62 122.2 41 122.17 41.41C122.23 43.61 122.35 44.71 122.54 44.71C122.93 44.71 124.2 42.83 126.37 39.07C126.6 38.73 126.84 38.42 127.11 38.12L127.28 37.95C127.58 37.6 127.83 37.42 128.02 37.42C128.13 37.42 128.25 37.45 128.35 37.5C128.46 37.55 128.56 37.62 128.63 37.71C128.8 37.89 128.88 38.12 128.88 38.37C128.88 39.05 127.81 41.52 125.67 45.78C124.98 46.85 124.28 47.38 123.57 47.38C122.96 47.35 122.37 47.16 121.84 46.85C121.25 46.57 120.73 46.16 120.32 45.65C119.69 44.5 119.42 43.18 119.54 41.87C119.54 41.12 119.58 40.29 119.66 39.36C119.71 38.9 119.68 38.44 119.58 38C119.52 38.03 119 38.77 118.01 40.22C117.49 41.07 117.04 41.76 116.65 42.28C116.46 42.58 116.3 42.84 116.16 43.06C116.02 43.25 115.91 43.42 115.83 43.56C115.78 43.6 115.74 43.66 115.71 43.72C115.6 43.9 115.48 44.06 115.34 44.21C115.21 44.39 115.03 44.54 114.83 44.64C114.63 44.74 114.41 44.79 114.18 44.79L113.81 44.75C113.25 44.58 112.72 44.28 112.28 43.88C111.84 43.48 111.49 42.99 111.26 42.44C111.06 42.03 110.97 41.58 110.97 41.13C110.95 40.82 110.93 39.67 110.93 37.67L110.64 37.92C108.54 40.08 106.71 42.49 105.17 45.08C104.52 46.25 103.76 47.35 102.9 48.37C102.61 48.64 102.23 48.79 101.84 48.78L101.84 48.78ZM102.33 47.55C102.41 47.55 102.7 47.21 103.19 46.52L104.39 44.79C106 42.22 107.88 39.82 109.99 37.63C110.65 36.97 110.97 36.59 110.97 36.48L110.19 37.18C109.26 38.14 108.23 39.3 107.1 40.68C106.35 41.56 105.65 42.5 105.01 43.48C104.59 44.11 104.15 44.75 103.69 45.41C103.15 46.06 102.69 46.78 102.33 47.55L102.33 47.55ZM114.72 43.88L114.89 43.76L115.21 43.35C114.86 43.62 114.68 43.78 114.68 43.84L114.68 43.88L114.72 43.88ZM124.27 46.31C124.33 46.31 124.46 46.19 124.68 45.94C124.87 45.77 125.02 45.58 125.14 45.36L125.18 45.36L125.18 45.32L125.14 45.32L124.76 45.69C124.57 45.87 124.4 46.08 124.27 46.31Z" fill="#000000" fill-opacity="1.000000" fill-rule="nonzero"/>
		<path id="Path 57183" d="M135.38 48.54C134.66 48.52 133.95 48.3 133.36 47.88C132.59 47.36 131.95 46.66 131.52 45.83C131.09 45 130.87 44.08 130.89 43.14C131 40.88 131.77 38.71 133.12 36.89C133.84 35.66 134.86 34.63 136.08 33.88L136.16 33.84C136.3 33.77 136.46 33.73 136.61 33.72C136.74 33.74 136.85 33.79 136.94 33.88C137.06 33.93 137.17 33.98 137.27 34.05C137.38 34.11 137.49 34.17 137.6 34.21C137.9 34.56 138.15 34.95 138.34 35.37C141.44 35.53 143.96 35.75 145.88 36.02C146.34 36.05 146.78 36.21 147.16 36.48C147.54 36.75 147.84 37.12 148.02 37.55C148.11 37.71 148.15 37.89 148.14 38.08C147.28 38.29 146.39 38.36 145.51 38.29C144.35 38.29 143.06 38.33 141.64 38.41C140.49 38.44 139.35 38.55 138.22 38.74C139.25 39.79 140.02 41.05 140.48 42.45C140.55 42.84 140.58 43.24 140.57 43.64C140.57 44.14 140.46 44.63 140.24 45.08C139.91 45.66 139.5 46.19 139 46.64C138.09 47.73 136.79 48.41 135.38 48.54ZM133.81 45.04C134.43 44.94 135.02 44.71 135.54 44.38C136.05 44.09 136.52 43.75 136.94 43.35C137.28 43.02 137.57 42.64 137.81 42.24C138.02 41.96 138.16 41.63 138.22 41.29C138.22 41.21 138.1 41.04 137.85 40.8C137.59 40.48 137.3 40.19 136.98 39.93C136.63 39.6 136.26 39.25 135.87 38.86C135.23 39.99 134.7 41.18 134.27 42.4C133.95 43.21 133.76 44.05 133.69 44.91C133.69 44.93 133.69 44.95 133.69 44.96C133.7 44.98 133.71 44.99 133.72 45.01C133.73 45.02 133.75 45.03 133.76 45.03C133.78 45.04 133.8 45.04 133.81 45.04L133.81 45.04ZM136.08 47.55L136.94 47.18C137.5 46.92 138.01 46.56 138.42 46.11C139 45.53 139.29 45.19 139.29 45.08C139.21 45.08 138.95 45.3 138.51 45.74L138.1 46.07C137.93 46.2 137.75 46.36 137.56 46.52C137.33 46.71 137.08 46.88 136.82 47.01C136.82 47.02 136.82 47.02 136.82 47.03C136.82 47.03 136.81 47.04 136.81 47.04C136.81 47.05 136.8 47.05 136.8 47.05C136.79 47.05 136.78 47.05 136.78 47.05C136.71 47.09 136.64 47.13 136.57 47.18C136.45 47.22 136.34 47.29 136.24 47.38C136.2 47.4 136.16 47.43 136.12 47.47C136.1 47.49 136.08 47.52 136.08 47.55L136.08 47.55Z" fill="#000000" fill-opacity="1.000000" fill-rule="nonzero"/>
		<path id="Path 57184" d="M160.36 50.72C159.98 50.72 159.61 50.66 159.25 50.55C157.96 50.11 157.31 48.11 157.31 44.54C157.32 43.24 157.19 41.95 156.94 40.67C156.94 40.54 156.75 40.48 156.36 40.51C155.86 40.49 155.36 40.41 154.88 40.26C154.14 40.15 153.43 39.87 152.81 39.44C152.19 39.01 151.67 38.45 151.3 37.79C151.14 37.27 151.07 36.73 151.09 36.18C151.26 33.88 151.83 31.62 152.78 29.52C153.44 27.63 154.56 25.93 156.03 24.58C156.58 24.25 157.21 24.08 157.85 24.08C159.2 24.1 160.5 24.65 161.47 25.61C161.73 25.81 161.94 26.07 162.09 26.37C162.23 26.67 162.3 27 162.29 27.34C162.29 28.27 161.6 30.18 160.23 33.06C158.86 35.94 157.65 37.56 156.61 37.91C156.36 38.03 156.24 38.12 156.24 38.2C156.24 38.37 156.47 38.45 156.94 38.45C157.71 38.43 158.47 38.61 159.14 38.98C159.81 39.35 160.38 39.89 160.77 40.55C160.91 41.12 160.97 41.7 160.93 42.28C160.93 44.7 160.95 46.22 160.97 46.85L160.97 48.33C160.98 48.34 161 48.35 161.01 48.36C161.03 48.37 161.04 48.37 161.06 48.37L161.14 48.37C161.52 48.37 162.25 47.79 163.32 46.64C164.73 45.02 165.89 43.2 166.78 41.25C167.11 40.34 167.41 39.89 167.68 39.89C167.83 39.91 167.97 39.96 168.09 40.06C168.09 40.06 168.09 40.07 168.1 40.07C168.1 40.08 168.1 40.08 168.1 40.09C168.11 40.09 168.11 40.09 168.12 40.09C168.12 40.1 168.13 40.1 168.13 40.1C168.2 40.14 168.26 40.2 168.3 40.27C168.35 40.34 168.37 40.42 168.38 40.51L168.38 40.59C168.38 41.36 167.72 43 166.41 45.53C165.35 47.09 164.12 48.53 162.74 49.81C162.09 50.4 161.23 50.73 160.35 50.72L160.36 50.72ZM154.88 37.42L155.25 35.61C155.58 33.77 156.15 31.99 156.94 30.3C157.26 29.7 157.49 29.06 157.64 28.4L157.64 28.36L157.55 28.4C157.33 28.71 157.15 29.04 157.02 29.39C155.54 32.33 154.8 34.65 154.8 36.35C154.76 36.7 154.79 37.07 154.88 37.42ZM158.91 33.84C158.97 33.84 159.01 33.77 159.04 33.63C159.07 33.54 159.11 33.46 159.16 33.38L159.24 33.22C159.77 32.16 160.24 31.07 160.64 29.97C160.94 29.24 161.13 28.48 161.22 27.7C161.23 27.58 161.22 27.45 161.18 27.33L160.85 28.36C160.27 30.25 159.63 32.08 158.91 33.84ZM160.27 48.66L160.23 48.08C160.2 47.58 160.19 46.87 160.19 45.94L160.19 44.17C160.19 42.22 160.11 41.18 159.94 41.04C159.91 41.12 159.89 41.2 159.9 41.29L159.9 41.53C159.96 46.01 160.03 48.31 160.11 48.45C160.13 48.47 160.15 48.5 160.15 48.53C160.2 48.61 160.25 48.65 160.27 48.65L160.27 48.66Z" fill="#000000" fill-opacity="1.000000" fill-rule="nonzero"/>
		<path id="Path 57185" d="M173.52 49.85C173.14 49.89 172.76 49.78 172.45 49.56C172.3 49.41 172.12 49.28 171.92 49.19C171.87 49.17 171.83 49.15 171.79 49.11C171.31 48.7 170.94 48.18 170.72 47.59C170.42 46.99 170.25 46.33 170.23 45.65C170.23 45.53 170.25 45.4 170.27 45.28C170.3 45.2 170.31 45.12 170.31 45.04C170.69 43.14 172.01 41.1 174.26 38.9C175.99 37.23 177.53 36.39 178.87 36.39C179.76 36.45 180.61 36.78 181.3 37.34C182.07 37.96 182.63 38.81 182.91 39.77L183.03 39.73C183.73 39.22 184.56 38.92 185.42 38.86C186.05 38.86 186.6 39.37 187.07 40.38C187.24 40.84 187.32 41.33 187.31 41.83C187.31 42.02 187.3 42.29 187.27 42.65C187.24 43.01 187.23 43.95 187.23 45.49L187.56 45.41C189.18 45.24 191.2 43.73 193.61 40.88C193.92 40.38 194.34 39.97 194.85 39.68L195.3 39.64C195.77 39.64 196 40.12 196 41.09C196 41.74 195.11 43.24 193.32 45.57C191.46 48.02 189.91 49.24 188.67 49.24C188.29 49.23 187.92 49.12 187.6 48.91C185.85 47.81 184.9 45.72 184.76 42.65C182.04 44.84 179.21 46.88 176.28 48.78C175.47 49.37 174.52 49.73 173.52 49.85L173.52 49.85ZM173.81 48.91C174.63 48.91 176.99 47.47 180.89 44.58C181.85 43.93 183.06 43.02 184.52 41.87C184.6 41.81 184.69 41.74 184.8 41.66C183.82 42.18 182.9 42.8 182.05 43.51C179.69 45.29 177.23 46.93 174.68 48.41C174.1 48.66 173.81 48.82 173.81 48.91L173.81 48.91ZM173.93 45.41L174.14 45.37C176.91 43.72 179.47 42.13 181.8 40.59C181.77 40.26 181.68 39.93 181.51 39.64C181.19 39.53 180.86 39.49 180.52 39.52C178.52 39.71 176.52 41.33 174.51 44.38L173.89 45.37L173.89 45.41L173.93 45.41ZM175.95 41.09L176.49 40.71C177.24 40.02 178.1 39.47 179.04 39.07C179.22 39.01 179.38 38.93 179.53 38.82L179.28 38.82C179.04 38.9 178.69 39.03 178.26 39.19C177.87 39.41 177.5 39.66 177.14 39.93C177.05 40.05 176.94 40.15 176.81 40.22C176.24 40.69 175.95 40.96 175.95 41.05L175.95 41.09ZM188.92 48.33C189.39 48.33 190.14 47.86 191.18 46.93C191.27 46.84 191.36 46.75 191.43 46.64C191.6 46.48 191.68 46.38 191.68 46.35C190.87 46.98 190.02 47.55 189.12 48.04C188.93 48.12 188.84 48.19 188.84 48.25C188.84 48.26 188.84 48.27 188.84 48.28C188.84 48.29 188.85 48.3 188.86 48.31C188.87 48.32 188.88 48.32 188.89 48.33C188.9 48.33 188.91 48.33 188.92 48.33L188.92 48.33Z" fill="#000000" fill-opacity="1.000000" fill-rule="nonzero"/>
		<path id="Path 57186" d="M40.4 55.01C40.65 54.43 40.85 53.98 40.98 53.66C41.72 51.79 42.56 49.96 43.5 48.18C40.34 50.56 36.91 52.57 33.29 54.16C29.83 55.76 26.12 56.73 22.33 57.05C19.58 57.29 16.81 56.98 14.19 56.15C11.86 55.43 9.71 54.23 7.89 52.61C6.19 51.05 4.86 49.12 4.02 46.96C3.19 44.81 2.85 42.49 3.05 40.19C3.29 37.7 3.91 35.27 4.89 32.97C6.06 30.21 7.51 27.57 9.22 25.1C11.37 22.04 13.81 19.2 16.51 16.62C19.71 13.54 23.14 10.72 26.78 8.17C29.77 6.05 33 4.28 36.4 2.9C39.4 1.63 42.56 0.75 45.79 0.3C48.52 -0.08 51.27 -0.11 54 0.19C56.29 0.42 58.5 1.12 60.5 2.26C62.14 3.18 63.46 4.59 64.27 6.28C65.6 9.12 65.29 12.5 63.35 16.41C61.58 19.81 59.16 22.84 56.23 25.32C52.02 28.89 47.44 32.01 42.57 34.62C39.47 36.39 37.63 36.99 37.05 36.41C36.76 36.12 36.95 35.72 37.63 35.2C37.73 35.1 37.85 35.02 37.97 34.96C42.88 32.3 47.47 29.08 51.63 25.37C54.68 22.71 57.22 19.52 59.14 15.97C60.95 12.32 61.25 9.23 60.06 6.71C58.9 4.26 56.62 2.81 53.23 2.35C50.04 2.06 46.82 2.46 43.81 3.55C39.77 4.93 35.97 6.94 32.55 9.48C27.92 12.7 23.65 16.41 19.81 20.55C16.76 23.76 14.16 27.37 12.08 31.28C10.53 34.23 9.55 37.45 9.2 40.77C8.84 45.07 9.89 48.46 12.34 50.94C14.89 53.46 18.48 54.61 23.1 54.38C25.62 54.23 28.11 53.74 30.51 52.93C32.96 52.12 35.31 51.05 37.53 49.73C39.6 48.5 41.58 47.13 43.46 45.64C45.18 44.27 46.79 42.77 48.29 41.16C48.64 40.8 48.95 40.69 49.23 40.82C49.37 40.89 49.49 41 49.57 41.14C49.65 41.27 49.69 41.43 49.69 41.59C49.76 41.75 49.79 41.93 49.78 42.11C49.78 42.28 49.73 42.45 49.64 42.61C47.66 45.98 45.98 49.51 44.6 53.17L44.17 54.19C44.62 54.06 47.39 53.72 52.47 53.17C57.56 52.62 60.33 52.26 60.78 52.1C62.04 51.81 63.2 51.21 64.17 50.36C64.21 50.3 64.27 50.24 64.33 50.2C64.4 50.17 64.47 50.14 64.54 50.13C64.62 50.12 64.69 50.12 64.76 50.14C64.84 50.16 64.91 50.19 64.96 50.24C65.02 50.28 65.07 50.34 65.11 50.41C65.15 50.47 65.17 50.55 65.18 50.62C65.18 50.69 65.17 50.77 65.15 50.84C65.13 50.91 65.09 50.98 65.04 51.04C64.49 51.78 63.2 52.49 61.17 53.17C60.62 53.36 57.68 53.76 52.35 54.38C47.03 54.99 44.11 55.36 43.59 55.5C42.66 57.73 41.38 59.8 39.82 61.65C37.58 64.2 34.69 66.1 31.46 67.15C28.12 68.26 25.41 68.49 23.35 67.85C22.87 67.72 22.41 67.5 22.02 67.19C21.63 66.88 21.31 66.49 21.07 66.05C20.77 65.45 20.7 64.76 20.88 64.12C21.27 62.44 22.87 60.84 25.68 59.32C28.75 57.74 32.03 56.62 35.41 55.97C35.9 55.88 36.71 55.72 37.84 55.51C38.97 55.3 39.82 55.13 40.4 55.01L40.4 55.01ZM39.77 56.31C39.19 56.44 38.34 56.6 37.23 56.8C36.12 56.99 35.35 57.14 34.93 57.23C31.9 57.87 28.97 58.92 26.21 60.33C24.15 61.47 22.93 62.73 22.58 64.11C22.5 64.36 22.49 64.63 22.53 64.88C22.57 65.14 22.67 65.38 22.82 65.6C22.97 65.81 23.16 65.99 23.39 66.12C23.62 66.25 23.87 66.32 24.13 66.34C26.17 66.66 28.25 66.44 30.18 65.71C32.53 64.96 34.62 63.57 36.23 61.7C37.65 60.08 38.84 58.27 39.76 56.32L39.77 56.31Z" fill="#000000" fill-opacity="1.000000" fill-rule="nonzero"/>
	</g>
</svg>
