<svg width="199.997559" height="43.309082" viewBox="0 0 199.998 43.3091" fill="none" xmlns="http://www.w3.org/2000/svg" xmlns:xlink="http://www.w3.org/1999/xlink">
	<desc>
			Created with Pixso.
	</desc>
	<defs/>
	<path id="Vector" d="M13.47 12.65L12.93 12.11C11.62 10.8 11.62 8.67 12.93 7.36L19.32 0.98C20.63 -0.33 22.75 -0.33 24.06 0.98L24.6 1.52C25.92 2.83 25.92 4.95 24.6 6.27L18.22 12.65C16.91 13.96 14.79 13.96 13.47 12.65Z" fill="#000000" fill-opacity="1.000000" fill-rule="nonzero"/>
	<path id="Vector" d="M19.41 18.58L18.87 18.04C17.56 16.73 17.56 14.6 18.87 13.29L25.25 6.91C26.56 5.6 28.69 5.6 30 6.91L30.54 7.45C31.85 8.76 31.85 10.88 30.54 12.2L24.16 18.58C22.84 19.89 20.72 19.89 19.41 18.58Z" fill="#000000" fill-opacity="1.000000" fill-rule="nonzero"/>
	<path id="Vector" d="M30.74 13.39L31.27 12.85C32.59 11.54 34.71 11.54 36.02 12.85L42.41 19.23C43.72 20.54 43.72 22.67 42.41 23.98L41.87 24.52C40.55 25.83 38.43 25.83 37.12 24.52L30.74 18.14C29.42 16.82 29.42 14.7 30.74 13.39Z" fill="#000000" fill-opacity="1.000000" fill-rule="nonzero"/>
	<path id="Vector" d="M24.81 19.32L25.35 18.78C26.66 17.47 28.78 17.47 30.09 18.78L36.48 25.16C37.79 26.48 37.79 28.6 36.48 29.91L35.94 30.45C34.62 31.76 32.5 31.76 31.19 30.45L24.81 24.07C23.49 22.76 23.49 20.63 24.81 19.32Z" fill="#000000" fill-opacity="1.000000" fill-rule="nonzero"/>
	<path id="Vector" d="M18.78 41.78L19.32 42.32C20.63 43.63 22.75 43.63 24.06 42.32L30.45 35.93C31.76 34.62 31.76 32.5 30.45 31.18L29.91 30.65C28.6 29.33 26.47 29.33 25.16 30.65L18.78 37.03C17.46 38.34 17.46 40.46 18.78 41.78L18.78 41.78Z" fill="#000000" fill-opacity="1.000000" fill-rule="nonzero"/>
	<path id="Vector" d="M12.85 35.85L13.39 36.39C14.7 37.7 16.82 37.7 18.13 36.39L24.52 30.01C25.83 28.69 25.83 26.57 24.52 25.26L23.98 24.72C22.67 23.41 20.54 23.41 19.23 24.72L12.85 31.1C11.54 32.42 11.54 34.54 12.85 35.85Z" fill="#000000" fill-opacity="1.000000" fill-rule="nonzero"/>
	<path id="Vector" d="M18.04 24.52L18.58 23.98C19.89 22.67 19.89 20.55 18.58 19.23L12.2 12.85C10.88 11.54 8.76 11.54 7.45 12.85L6.91 13.39C5.6 14.7 5.6 16.83 6.91 18.14L13.29 24.52C14.6 25.83 16.73 25.83 18.04 24.52Z" fill="#000000" fill-opacity="1.000000" fill-rule="nonzero"/>
	<path id="Vector" d="M12.11 30.45L12.65 29.91C13.96 28.6 13.96 26.48 12.65 25.16L6.27 18.78C4.95 17.47 2.83 17.47 1.52 18.78L0.98 19.32C-0.33 20.63 -0.33 22.76 0.98 24.07L7.36 30.45C8.67 31.76 10.8 31.76 12.11 30.45Z" fill="#000000" fill-opacity="1.000000" fill-rule="nonzero"/>
	<path id="Vector" d="M47.29 22.21C47.29 31.81 55.85 35.15 55.85 35.15C63.05 37.89 69.1 35.8 69.1 35.8C72.56 34.78 72.23 34.55 72.56 33.58L74.54 27.67L73.61 27.12C73.61 27.12 71.13 35.01 64.35 35.01C62.68 35.01 52.42 33.81 52.42 21.66C52.42 12.88 58.01 8.81 63.32 8.81C67.21 8.81 70.78 10.12 72.12 15.39C72.29 16.06 73.05 16.62 73.05 15.5L73.05 9.39C63.03 4.9 55.44 9.21 55.44 9.21C55.44 9.21 47.28 13.1 47.28 22.2L47.29 22.21Z" fill="#000000" fill-opacity="1.000000" fill-rule="nonzero"/>
	<path id="Vector" d="M100.33 7.62L100.33 33.55C100.33 34.74 101.02 35.62 102.56 35.62C103.3 35.62 103.4 35.62 103.4 36.56L93.5 36.56C93.5 35.62 93.6 35.62 94.34 35.62C95.46 35.62 96.57 34.74 96.57 33.55L96.57 12.13C96.57 11.14 96.1 10.65 96.1 10.65L95 9.44C94.35 8.71 94.98 8.71 95.61 8.44L99.28 7.1C99.28 7.1 100.33 6.62 100.33 7.62L100.33 7.62Z" fill="#000000" fill-opacity="1.000000" fill-rule="nonzero"/>
	<path id="Vector" d="M112.13 34.06C110.69 34.06 108.34 33.02 108.3 30.35L108.17 19.72C108.14 18.69 108.3 17.65 108.02 17.67L102.13 18.18C101.11 18.25 101.9 18.99 102.34 18.99C104.25 18.99 104.49 20.44 104.49 20.44C104.83 21.75 104.7 22.78 104.7 24.05C104.7 28.75 104.91 32.31 104.91 32.31C105.03 34.52 106.97 36.4 109.2 36.4C113.07 36.4 116.79 33.58 116.79 33.58L116.79 35.9C116.79 36.66 116.87 36.65 117.65 36.39L122.47 35.11C123.45 34.84 122.88 34.24 122.28 34.24C120.92 34.18 120.4 34.24 120.4 32.78L120.5 18.36C120.5 17.44 120.54 17.42 120.1 17.52C119.02 17.75 113.29 18.19 113.29 18.19C112.27 18.27 113.06 19 113.49 19C116.55 19.07 116.87 20.52 116.87 22.13L116.79 32.09C116.79 32.09 114.7 34.06 112.13 34.06L112.13 34.06Z" fill="#000000" fill-opacity="1.000000" fill-rule="nonzero"/>
	<path id="Vector" d="M141.28 22.39C141.28 22.39 143.08 20.52 145.7 20.52C149.32 20.52 149.83 23.68 149.83 23.68L149.95 33.55C149.95 34.74 148.84 35.62 147.72 35.62C146.98 35.62 146.88 35.62 146.88 36.56L156.5 36.56C156.5 35.62 156.4 35.62 155.66 35.62C154.12 35.62 153.43 34.74 153.43 33.55L153.28 22.86C153.28 22.86 153.28 17.81 147.86 17.81C144.51 17.81 141.17 20.96 141.17 20.96C140.22 19.88 139.47 17.81 135.88 17.81C132.29 17.81 129.17 20.96 129.17 20.96L129.41 18.58C129.51 17.72 129.18 17.49 128.45 17.86L124.93 19.48C124.02 19.99 123.65 20.05 124.28 20.67C125.35 21.81 125.88 21.83 125.88 23.46L125.94 33.55C125.94 34.74 124.82 35.62 123.7 35.62C122.97 35.62 122.87 35.62 122.87 36.56L132.49 36.56C132.49 35.62 132.39 35.62 131.65 35.62C130.11 35.62 129.42 34.74 129.42 33.55L129.35 22.31C129.35 22.31 130.7 20.51 133.55 20.51C137.43 20.51 137.8 23.8 137.8 23.8L137.8 33.55C137.8 34.73 136.69 35.62 135.57 35.62C134.83 35.62 134.73 35.62 134.73 36.55L144.35 36.55C144.35 35.62 144.25 35.62 143.51 35.62C141.97 35.62 141.28 34.73 141.28 33.55L141.28 22.38L141.28 22.39Z" fill="#000000" fill-opacity="1.000000" fill-rule="nonzero"/>
	<path id="Vector" d="M180.58 18.34L180.58 33.56C180.58 34.74 181.27 35.62 182.81 35.62C183.54 35.62 183.64 35.62 183.64 36.56L173.75 36.56C173.75 35.62 173.84 35.62 174.58 35.62C175.7 35.62 177.01 34.76 177.01 33.57L176.97 23.09C176.97 22.09 176.51 21.61 176.51 21.61L174.95 20.45C174.3 19.72 174.93 19.72 175.56 19.46L179.53 17.83C179.53 17.83 180.58 17.35 180.58 18.34L180.58 18.34Z" fill="#000000" fill-opacity="1.000000" fill-rule="nonzero"/>
	<path id="Vector" d="M180.83 11.24C180.83 12.38 179.87 13.31 178.69 13.31C177.51 13.31 176.55 12.38 176.55 11.24C176.55 10.09 177.51 9.16 178.69 9.16C179.87 9.16 180.83 10.09 180.83 11.24Z" fill="#000000" fill-opacity="1.000000" fill-rule="nonzero"/>
	<path id="Vector" d="M84.43 17.47C78.83 17.47 74.3 21.74 74.3 27.02C74.3 32.29 78 36.56 84.43 36.56C90.52 36.56 94.55 32.29 94.55 27.02C94.55 20.78 90.02 17.47 84.43 17.47ZM84.43 35.28C81.07 35.28 78.34 31.86 78.34 27.02C78.34 21.57 81.07 18.76 84.43 18.76C88.7 18.76 90.52 22.45 90.52 27.02C90.52 31.58 88.82 35.28 84.43 35.28Z" fill="#000000" fill-opacity="1.000000" fill-rule="nonzero"/>
	<path id="Vector" d="M166.66 17.61C163.46 17.61 160.04 19.69 160.04 19.69L160.09 7.37C160.09 6.38 159.04 6.86 159.04 6.86L155.38 8.2C154.74 8.45 154.11 8.46 154.77 9.19L155.86 10.4C155.86 10.4 156.33 10.89 156.33 11.88L156.5 34.98C156.5 34.98 159.22 36.57 163.82 36.57C169.17 36.57 172.24 32.65 172.24 32.65C176.85 26.65 173.19 21.23 173.19 21.23C173.19 21.23 170.83 17.61 166.66 17.61L166.66 17.61ZM170.62 29.9C170.62 29.9 170.06 34.85 164.73 34.85C162.87 34.85 160.04 33.96 160.04 30.22L160.04 20.98C164.82 18.57 168.2 21.66 168.2 21.66C168.2 21.66 171.8 24.19 170.62 29.9Z" fill="#000000" fill-opacity="1.000000" fill-rule="nonzero"/>
	<path id="Vector" d="M198.5 34.62C198.5 34.62 196.3 34.01 196.3 32.15L196.3 25.98C196.3 22.59 195.91 21.03 195.91 21.03C195.91 21.03 195.26 17.61 191.74 17.61C189.82 17.61 188.34 18.48 188.34 18.48C188.34 18.48 185.49 20.16 183.67 22.44C183.67 22.44 182.61 23.82 184.7 23.82C185.81 23.82 186.38 23.97 186.46 23.12L186.6 21.59C186.6 21.59 186.79 19.61 189.19 19.61C190.48 19.61 191.59 20.42 191.59 20.42C193.36 21.78 192.96 26.1 192.96 26.1L186.57 29.06C186.57 29.06 183.83 30.15 183.83 31.06L183.83 32.85C183.83 32.85 184.08 36.56 187.94 36.56C190.55 36.56 192.86 34.23 192.86 34.23C192.86 34.23 193.04 36.56 196.01 36.56C197.74 36.56 199.31 35.91 199.31 35.91C200.66 35.33 199.81 34.97 198.5 34.61L198.5 34.62ZM190.93 34.25C190.71 34.41 188.78 35.11 187.7 33.44C187.48 33.12 186.84 31.06 187.81 30.43L192.83 27.49L192.85 32.84L190.93 34.25L190.93 34.25Z" fill="#000000" fill-opacity="1.000000" fill-rule="nonzero"/>
</svg>
