<svg width="49.463867" height="72.466125" viewBox="0 0 49.4639 72.4661" fill="none" xmlns="http://www.w3.org/2000/svg" xmlns:xlink="http://www.w3.org/1999/xlink">
	<desc>
			Created with Pixso.
	</desc>
	<defs/>
	<path id="Vector" d="M35.32 67.27C32.8 69.24 30.02 70.52 27.1 70.97L25.52 70.97L25.52 61.93L34.44 49.4L43.27 57.08L42.05 59.39C40.15 62.62 37.86 65.29 35.34 67.27L35.32 67.27ZM7.64 59.86L15.48 50.12L23.87 61.95L23.87 70.99L22.29 70.99C19.37 70.54 16.59 69.26 14.07 67.29C11.66 65.41 9.48 62.89 7.64 59.88L7.64 59.86ZM5.68 16.42L14.69 23.36L14.69 48.5L6.79 58.32L5.85 56.57C3.13 50.87 1.51 43.86 1.51 36.3C1.51 28.91 3.05 22.06 5.66 16.42L5.68 16.42ZM14.07 5.33C16.59 3.37 19.37 2.09 22.29 1.64L23.87 1.64L23.87 9.8L15.33 21.8L6.4 14.95L7.34 13.22C9.24 9.99 11.53 7.32 14.07 5.33ZM42.03 13.22L42.95 14.92L34.04 21.8L25.5 9.8L25.5 1.62L27.08 1.62C30 2.07 32.78 3.35 35.3 5.31C37.84 7.3 40.13 9.97 42.03 13.19L42.03 13.22ZM24.68 60.29L16.31 48.52L16.31 23.21L24.68 11.44L33.06 23.21L33.06 48.52L24.68 60.29ZM43.97 55.57L35.47 48.16C35.24 47.96 34.94 47.9 34.68 48.01L34.68 23.36L43.69 16.4C46.3 22.04 47.86 28.89 47.86 36.3C47.86 43.44 46.43 50.06 43.99 55.57L43.97 55.57ZM44.72 14.77L43.46 12.45C41.47 9.07 39.06 6.23 36.32 4.1C33.59 1.92 30.54 0.51 27.29 0C27.29 0 27.27 0 27.25 0C27.25 0 27.23 0 27.21 0L22.27 0C22.27 0 22.25 0 22.23 0C22.23 0 22.21 0 22.19 0C18.94 0.49 15.88 1.9 13.15 4.03C10.42 6.17 8 9.01 6.02 12.38L4.74 14.73C1.75 20.78 0 28.21 0 36.24C0 44.03 1.66 51.27 4.48 57.21L6 60.07C7.98 63.45 10.4 66.29 13.13 68.42C15.86 70.56 18.92 71.97 22.16 72.46C22.16 72.46 22.19 72.46 22.21 72.46C22.21 72.46 22.23 72.46 22.25 72.46L27.18 72.46C27.18 72.46 27.21 72.46 27.23 72.46C27.23 72.46 27.25 72.46 27.27 72.46C30.51 71.97 33.57 70.56 36.3 68.42C39.04 66.29 41.45 63.45 43.44 60.07L44.97 57.17C47.79 51.23 49.46 44.01 49.46 36.22C49.46 28.17 47.71 20.73 44.7 14.69L44.72 14.77Z" fill="#000000" fill-opacity="1.000000" fill-rule="nonzero"/>
</svg>
