<svg width="82.794922" height="64.939209" viewBox="0 0 82.7949 64.9392" fill="none" xmlns="http://www.w3.org/2000/svg" xmlns:xlink="http://www.w3.org/1999/xlink">
	<desc>
			Created with Pixso.
	</desc>
	<defs/>
	<path id="Vector" d="M2.04 46.57C2.19 46.2 2.45 45.89 2.8 45.64C3.14 45.42 3.53 45.28 3.97 45.28C4.65 45.28 5.28 45.64 5.62 46.25C6.94 48.54 8.79 50.49 10.98 51.95C13.17 53.41 15.75 54.36 18.51 54.63L18.56 54.63C18.56 54.63 18.58 54.63 18.6 54.63C18.6 54.63 18.68 54.63 18.7 54.63C18.73 54.63 18.75 54.63 18.78 54.63C18.78 54.63 18.8 54.63 18.82 54.63C18.82 54.63 18.85 54.63 18.87 54.63C18.87 54.63 18.9 54.63 18.92 54.63C18.92 54.63 18.92 54.63 18.95 54.63C18.95 54.63 18.99 54.63 18.99 54.61C18.99 54.61 18.99 54.61 19.02 54.61C19.02 54.61 19.04 54.61 19.07 54.58C19.07 54.58 19.07 54.58 19.09 54.58C19.09 54.58 19.12 54.58 19.14 54.56C19.14 54.56 19.14 54.56 19.16 54.56C19.16 54.56 19.19 54.56 19.21 54.53C19.21 54.53 19.21 54.53 19.24 54.51C19.24 54.51 19.24 54.51 19.26 54.48C19.26 54.48 19.26 54.48 19.29 54.46C19.29 54.46 19.29 54.46 19.29 54.44C19.29 54.44 19.29 54.41 19.31 54.39C19.31 54.39 19.31 54.39 19.31 54.36C19.31 54.36 19.31 54.34 19.34 54.31C19.34 54.31 19.34 54.29 19.34 54.27C19.34 54.27 19.34 54.24 19.34 54.22C19.34 54.22 19.34 54.17 19.34 54.14C19.34 54.07 19.38 53.97 19.38 53.9C19.38 53.9 19.38 53.88 19.38 53.85L19.38 43.4C19.38 43.38 19.38 43.35 19.38 43.3C19.38 43.3 19.38 43.26 19.38 43.23C19.38 43.23 19.38 43.21 19.38 43.18C19.38 43.18 19.38 43.16 19.38 43.13L19.38 43.08C19.38 43.08 19.38 43.08 19.38 43.06C19.38 43.06 19.38 43.01 19.36 43.01C19.36 43.01 19.36 42.99 19.34 42.96C19.34 42.96 19.34 42.94 19.31 42.91C19.31 42.91 19.31 42.91 19.31 42.89C19.31 42.89 19.31 42.87 19.29 42.84C19.29 42.84 19.29 42.84 19.26 42.82C19.26 42.82 19.26 42.82 19.24 42.79C19.24 42.79 19.24 42.79 19.21 42.77C19.21 42.77 19.21 42.77 19.19 42.77C19.19 42.77 19.16 42.77 19.14 42.74C19.14 42.74 19.14 42.74 19.12 42.74C19.12 42.74 19.09 42.74 19.07 42.72C19.07 42.72 19.04 42.72 19.02 42.72C19.02 42.72 18.99 42.72 18.97 42.72C18.97 42.72 18.92 42.72 18.9 42.72C18.85 42.72 18.78 42.7 18.7 42.67C14.93 42.28 11.57 40.48 9.13 37.82C6.72 35.14 5.23 31.61 5.23 27.74C5.23 25.72 5.62 23.79 6.35 22.04C7.42 19.41 9.25 17.14 11.54 15.51C13.83 13.88 16.58 12.88 19.58 12.73L20.97 12.73C24.96 12.9 28.54 14.66 31.12 17.34C32.42 18.68 33.46 20.29 34.19 22.04C34.92 23.79 35.31 25.72 35.31 27.74C35.31 31.64 33.85 35.17 31.42 37.82C29.01 40.5 25.64 42.28 21.84 42.67C21.82 42.67 21.77 42.67 21.75 42.67C21.72 42.67 21.7 42.67 21.67 42.67C21.67 42.67 21.67 42.67 21.65 42.67C21.65 42.67 21.62 42.67 21.6 42.67C21.6 42.67 21.58 42.67 21.55 42.67C21.55 42.67 21.55 42.67 21.53 42.67C21.53 42.67 21.5 42.67 21.48 42.7C21.48 42.7 21.48 42.7 21.46 42.7C21.46 42.7 21.43 42.7 21.41 42.72C21.41 42.72 21.41 42.72 21.38 42.72C21.38 42.72 21.36 42.72 21.33 42.77C21.33 42.77 21.33 42.77 21.31 42.77C21.31 42.77 21.31 42.77 21.28 42.79C21.28 42.79 21.28 42.79 21.26 42.82C21.26 42.82 21.26 42.82 21.24 42.84C21.24 42.84 21.24 42.87 21.21 42.89C21.21 42.89 21.21 42.89 21.21 42.91C21.21 42.91 21.21 42.94 21.19 42.96C21.19 42.96 21.19 42.96 21.19 42.99C21.19 42.99 21.19 43.01 21.19 43.04C21.19 43.04 21.19 43.06 21.19 43.08C21.19 43.08 21.19 43.11 21.19 43.13C21.19 43.13 21.19 43.18 21.19 43.21C21.19 43.21 21.19 43.21 21.19 43.23C21.19 43.3 21.19 43.35 21.19 43.43L21.19 53.88C21.19 53.88 21.19 53.92 21.19 53.95C21.19 53.95 21.19 53.95 21.19 53.97C21.19 53.97 21.19 54.05 21.19 54.07C21.19 54.09 21.19 54.12 21.19 54.14C21.19 54.14 21.19 54.17 21.19 54.19C21.19 54.19 21.19 54.22 21.19 54.24C21.19 54.24 21.19 54.27 21.19 54.29C21.19 54.29 21.19 54.29 21.19 54.31C21.19 54.31 21.19 54.34 21.21 54.36C21.21 54.36 21.21 54.39 21.26 54.41C21.26 54.41 21.28 54.44 21.31 54.46C21.31 54.46 21.33 54.46 21.36 54.48C21.36 54.48 21.36 54.48 21.38 54.51C21.38 54.51 21.38 54.51 21.41 54.53C21.41 54.53 21.43 54.53 21.46 54.56C21.46 54.56 21.46 54.56 21.48 54.56C21.48 54.56 21.5 54.56 21.53 54.58C21.53 54.58 21.53 54.58 21.55 54.58C21.55 54.58 21.58 54.58 21.6 54.58C21.6 54.58 21.62 54.58 21.65 54.58C21.65 54.58 21.67 54.58 21.7 54.58C21.7 54.58 21.75 54.58 21.77 54.58C21.84 54.58 21.94 54.58 22.01 54.58C22.01 54.58 22.01 54.58 22.04 54.58C24.79 54.29 27.35 53.34 29.57 51.9C31.76 50.44 33.61 48.49 34.92 46.2C35.27 45.59 35.9 45.23 36.58 45.23C36.87 45.23 37.14 45.28 37.41 45.4C37.77 45.57 38.09 45.84 38.33 46.15C38.58 46.47 38.68 46.88 38.68 47.3C38.68 47.42 38.68 47.54 38.65 47.66C37.85 52 35.56 55.82 32.32 58.58C29.08 61.3 24.89 62.96 20.31 62.96C15.73 62.96 11.54 61.3 8.3 58.58C5.06 55.85 2.75 52.02 1.97 47.66C1.97 47.54 1.94 47.42 1.94 47.3C1.94 47.03 1.99 46.76 2.11 46.52L2.04 46.57ZM0.09 48.08C0.97 52.85 3.5 57.07 7.06 60.06C10.62 63.06 15.24 64.89 20.26 64.89C25.28 64.89 29.91 63.08 33.46 60.06C37.04 57.07 39.55 52.85 40.43 48.08C40.48 47.83 40.5 47.59 40.5 47.37C40.5 46.84 40.41 46.32 40.19 45.86C39.89 45.16 39.41 44.55 38.77 44.13C38.14 43.69 37.38 43.45 36.56 43.45C35.19 43.45 33.95 44.18 33.29 45.35C32.12 47.4 30.47 49.13 28.52 50.42C26.84 51.54 24.91 52.32 22.84 52.66L22.84 44.08C26.76 43.47 30.22 41.53 32.76 38.72C35.49 35.73 37.14 31.73 37.14 27.37C37.14 25.11 36.7 22.94 35.87 20.97C34.66 18 32.63 15.46 30.05 13.64C27.47 11.81 24.38 10.66 21.02 10.52L20.97 10.52L20.46 10.52L20.46 4.06C20.46 3.75 20.53 3.48 20.63 3.21C20.8 2.82 21.09 2.48 21.43 2.24C21.8 1.99 22.21 1.85 22.67 1.85C22.99 1.85 23.26 1.92 23.53 2.02C23.91 2.19 24.26 2.48 24.5 2.82C24.74 3.19 24.89 3.6 24.89 4.06C24.89 4.57 25.3 4.99 25.81 4.99C26.33 4.99 26.74 4.57 26.74 4.06C26.74 3.5 26.62 2.97 26.42 2.48C26.11 1.75 25.6 1.12 24.94 0.68C24.33 0.26 23.55 0 22.7 0C22.14 0 21.6 0.12 21.11 0.31C20.38 0.63 19.75 1.14 19.31 1.8C18.87 2.46 18.6 3.23 18.6 4.09L18.6 10.59C14.49 10.98 10.79 12.88 8.06 15.71C6.6 17.22 5.43 19.02 4.62 20.99C3.82 22.96 3.36 25.13 3.36 27.4C3.36 31.76 5.01 35.75 7.74 38.75C10.27 41.55 13.76 43.5 17.66 44.11L17.66 52.68C15.58 52.32 13.68 51.54 11.98 50.44C10.03 49.15 8.37 47.42 7.2 45.37C6.52 44.21 5.28 43.47 3.94 43.47C3.38 43.47 2.87 43.6 2.38 43.79C1.68 44.08 1.07 44.6 0.65 45.23C0.24 45.86 0 46.62 0 47.42C0 47.66 0 47.88 0.07 48.13L0.09 48.08Z" fill="#000000" fill-opacity="1.000000" fill-rule="nonzero"/>
	<path id="Vector" d="M13.54 31.93C12.66 30.64 12.15 29.08 12.15 27.37C12.15 25.38 12.86 23.55 14.05 22.14C15 20.99 16.27 20.14 17.68 19.65L17.68 23.11C17.05 23.5 16.51 24.01 16.1 24.62C15.59 25.4 15.27 26.35 15.27 27.37C15.27 28.06 15.42 28.71 15.66 29.32C16.05 30.22 16.68 30.98 17.46 31.51C18.27 32.05 19.22 32.37 20.26 32.37C20.95 32.37 21.6 32.22 22.21 31.98C23.11 31.59 23.87 30.95 24.4 30.18C24.94 29.37 25.26 28.42 25.26 27.37C25.26 26.38 24.96 25.43 24.43 24.62C24.01 24.01 23.48 23.5 22.85 23.11L22.85 19.65C24.28 20.14 25.52 20.99 26.47 22.14C27.67 23.55 28.37 25.38 28.37 27.37C28.37 28.49 28.16 29.57 27.74 30.54C27.13 32 26.08 33.24 24.79 34.12C23.5 35 21.94 35.51 20.24 35.51C19.12 35.51 18.05 35.29 17.07 34.88C15.61 34.27 14.37 33.22 13.49 31.93L13.54 31.93ZM19 24.52C19.34 24.38 19.56 24.04 19.56 23.67L19.56 19.38L21.02 19.38L21.02 23.67C21.02 24.04 21.24 24.38 21.58 24.52C22.11 24.77 22.58 25.16 22.92 25.67C23.24 26.16 23.43 26.74 23.43 27.4C23.43 27.84 23.33 28.25 23.19 28.62C22.94 29.18 22.55 29.66 22.04 30C21.53 30.35 20.95 30.54 20.29 30.54C19.85 30.54 19.44 30.44 19.07 30.3C18.51 30.05 18.02 29.66 17.68 29.15C17.34 28.64 17.15 28.06 17.15 27.4C17.15 26.77 17.34 26.18 17.66 25.67C17.97 25.18 18.44 24.77 19 24.52ZM24.16 36.58C25.96 35.83 27.47 34.56 28.57 32.95C29.64 31.37 30.27 29.42 30.27 27.37C30.27 24.94 29.4 22.67 27.94 20.94C26.47 19.21 24.45 17.97 22.14 17.56C22.14 17.56 22.09 17.56 22.07 17.56C22.07 17.56 22.04 17.56 22.02 17.56C22.02 17.56 21.99 17.56 21.97 17.56L18.63 17.56C18.63 17.56 18.61 17.56 18.58 17.56C18.58 17.56 18.56 17.56 18.53 17.56C18.53 17.56 18.49 17.56 18.46 17.56C18.46 17.56 18.46 17.56 18.44 17.56C16.12 18 14.1 19.21 12.64 20.94C11.18 22.67 10.3 24.91 10.3 27.37C10.3 28.76 10.57 30.08 11.08 31.27C11.83 33.07 13.1 34.58 14.71 35.68C16.29 36.75 18.24 37.39 20.29 37.39C21.68 37.39 22.99 37.12 24.18 36.61L24.16 36.58Z" fill="#000000" fill-opacity="1.000000" fill-rule="nonzero"/>
	<path id="Vector" d="M80.94 47.74C80.13 52.07 77.84 55.9 74.6 58.65C71.37 61.38 67.18 63.03 62.6 63.03C58.02 63.03 53.83 61.38 50.59 58.65C47.35 55.92 45.03 52.1 44.25 47.74C44.25 47.62 44.23 47.49 44.23 47.37C44.23 47.1 44.28 46.84 44.4 46.59C44.55 46.23 44.81 45.91 45.16 45.67C45.5 45.45 45.89 45.3 46.33 45.3C47.01 45.3 47.64 45.67 47.98 46.28C49.3 48.57 51.15 50.51 53.34 51.98C55.53 53.44 58.11 54.39 60.87 54.66L60.91 54.66C60.91 54.66 60.94 54.66 60.96 54.66C60.96 54.66 61.04 54.66 61.06 54.66C61.09 54.66 61.11 54.66 61.13 54.66C61.13 54.66 61.16 54.66 61.18 54.66C61.18 54.66 61.21 54.66 61.23 54.66C61.23 54.66 61.26 54.66 61.28 54.66C61.28 54.66 61.28 54.66 61.3 54.66C61.3 54.66 61.35 54.66 61.35 54.63C61.35 54.63 61.35 54.63 61.38 54.63C61.38 54.63 61.4 54.63 61.43 54.61C61.43 54.61 61.43 54.61 61.45 54.61C61.45 54.61 61.48 54.61 61.5 54.58C61.5 54.58 61.5 54.58 61.52 54.58C61.52 54.58 61.55 54.58 61.57 54.56C61.57 54.56 61.57 54.56 61.6 54.53C61.6 54.53 61.6 54.53 61.62 54.51C61.62 54.51 61.62 54.51 61.65 54.48C61.65 54.48 61.65 54.48 61.65 54.46C61.65 54.46 61.65 54.44 61.67 54.41C61.67 54.41 61.67 54.41 61.67 54.39C61.67 54.39 61.67 54.36 61.7 54.34C61.7 54.34 61.7 54.31 61.7 54.29C61.7 54.29 61.7 54.27 61.7 54.24C61.7 54.24 61.7 54.19 61.7 54.17C61.7 54.09 61.74 54 61.74 53.92C61.74 53.92 61.74 53.9 61.74 53.88L61.74 43.43C61.74 43.4 61.74 43.38 61.74 43.33C61.74 43.33 61.74 43.28 61.74 43.26C61.74 43.26 61.74 43.23 61.74 43.21C61.74 43.21 61.74 43.18 61.74 43.16L61.74 43.11C61.74 43.11 61.74 43.11 61.74 43.08C61.74 43.08 61.74 43.04 61.72 43.04C61.72 43.04 61.72 43.01 61.7 42.99C61.7 42.99 61.7 42.96 61.67 42.94C61.67 42.94 61.67 42.94 61.67 42.91C61.67 42.91 61.67 42.89 61.65 42.87C61.65 42.87 61.65 42.87 61.62 42.84C61.62 42.84 61.62 42.84 61.6 42.82C61.6 42.82 61.6 42.82 61.57 42.79C61.57 42.79 61.57 42.79 61.55 42.79C61.55 42.79 61.52 42.79 61.5 42.77C61.5 42.77 61.5 42.77 61.48 42.77C61.48 42.77 61.45 42.77 61.43 42.74C61.43 42.74 61.4 42.74 61.38 42.74C61.38 42.74 61.35 42.74 61.33 42.74C61.33 42.74 61.28 42.74 61.26 42.74C61.21 42.74 61.13 42.72 61.06 42.7C57.29 42.31 53.92 40.5 51.49 37.85C49.08 35.17 47.59 31.64 47.59 27.76C47.59 25.74 47.98 23.82 48.71 22.06C49.78 19.43 51.61 17.17 53.9 15.54C56.19 13.9 58.94 12.9 61.94 12.76L63.33 12.76C67.32 12.93 70.88 14.68 73.48 17.36C74.78 18.7 75.82 20.31 76.55 22.06C77.28 23.82 77.67 25.74 77.67 27.76C77.67 31.66 76.21 35.19 73.78 37.85C71.37 40.53 68 42.31 64.2 42.7C64.18 42.7 64.13 42.7 64.11 42.7C64.08 42.7 64.06 42.7 64.03 42.7C64.03 42.7 64.03 42.7 64.01 42.7C64.01 42.7 63.98 42.7 63.96 42.7C63.96 42.7 63.94 42.7 63.91 42.7C63.91 42.7 63.91 42.7 63.89 42.7C63.89 42.7 63.86 42.7 63.84 42.72C63.84 42.72 63.84 42.72 63.81 42.72C63.81 42.72 63.79 42.72 63.77 42.74C63.77 42.74 63.77 42.74 63.74 42.74C63.74 42.74 63.72 42.74 63.69 42.79C63.69 42.79 63.69 42.79 63.67 42.79C63.67 42.79 63.67 42.79 63.64 42.82C63.64 42.82 63.64 42.82 63.62 42.84C63.62 42.84 63.62 42.84 63.62 42.87C63.62 42.87 63.62 42.89 63.59 42.91C63.59 42.91 63.59 42.91 63.59 42.94C63.59 42.94 63.59 42.96 63.57 42.99C63.57 42.99 63.57 42.99 63.57 43.01C63.57 43.01 63.57 43.04 63.57 43.06C63.57 43.06 63.57 43.08 63.57 43.11C63.57 43.11 63.57 43.13 63.57 43.16C63.57 43.16 63.57 43.21 63.57 43.23C63.57 43.23 63.57 43.23 63.57 43.26C63.57 43.33 63.57 43.38 63.57 43.45L63.57 53.9C63.57 53.9 63.57 53.95 63.57 53.97C63.57 53.97 63.57 53.97 63.57 54C63.57 54 63.57 54.07 63.57 54.09C63.57 54.12 63.57 54.14 63.57 54.17C63.57 54.17 63.57 54.19 63.57 54.22C63.57 54.22 63.57 54.24 63.57 54.27C63.57 54.27 63.57 54.29 63.57 54.31C63.57 54.31 63.57 54.31 63.57 54.34C63.57 54.34 63.57 54.36 63.59 54.39C63.59 54.39 63.59 54.41 63.64 54.44C63.64 54.44 63.67 54.46 63.69 54.48C63.69 54.48 63.72 54.48 63.74 54.51C63.74 54.51 63.74 54.51 63.77 54.53C63.77 54.53 63.77 54.53 63.79 54.56C63.79 54.56 63.81 54.56 63.84 54.58C63.84 54.58 63.84 54.58 63.86 54.58C63.86 54.58 63.89 54.58 63.91 54.61C63.91 54.61 63.91 54.61 63.94 54.61C63.94 54.61 63.96 54.61 63.98 54.61C63.98 54.61 64.01 54.61 64.03 54.61C64.03 54.61 64.06 54.61 64.08 54.61C64.08 54.61 64.13 54.61 64.16 54.61C64.23 54.61 64.33 54.61 64.4 54.61C64.4 54.61 64.4 54.61 64.42 54.61C67.18 54.31 69.73 53.36 71.95 51.93C74.14 50.47 75.99 48.52 77.31 46.23C77.65 45.62 78.28 45.25 78.96 45.25C79.26 45.25 79.53 45.3 79.79 45.42C80.16 45.59 80.47 45.86 80.72 46.18C80.94 46.52 81.06 46.91 81.06 47.32C81.06 47.45 81.06 47.57 81.04 47.69L80.94 47.74ZM81.11 44.11C80.47 43.67 79.72 43.43 78.89 43.43C77.53 43.43 76.29 44.16 75.63 45.33C74.46 47.37 72.8 49.1 70.85 50.39C69.17 51.51 67.25 52.29 65.18 52.63L65.18 44.06C69.1 43.45 72.56 41.5 75.09 38.7C77.82 35.7 79.48 31.71 79.48 27.35C79.48 25.08 79.04 22.92 78.21 20.94C76.99 17.97 74.97 15.44 72.39 13.61C69.81 11.78 66.71 10.64 63.35 10.49L63.3 10.49L62.79 10.49L62.79 4.06C62.79 3.75 62.86 3.48 62.96 3.21C63.13 2.82 63.42 2.48 63.77 2.24C64.13 1.99 64.54 1.85 65.01 1.85C65.32 1.85 65.59 1.92 65.86 2.02C66.25 2.19 66.59 2.48 66.83 2.82C67.08 3.19 67.22 3.6 67.22 4.06L67.22 6.43C67.22 6.94 67.64 7.35 68.15 7.35C68.66 7.35 69.08 6.94 69.08 6.43L69.08 4.06C69.08 3.5 68.95 2.97 68.76 2.48C68.44 1.75 67.93 1.12 67.27 0.68C66.64 0.26 65.86 0 65.01 0C64.45 0 63.91 0.12 63.42 0.31C62.69 0.63 62.06 1.14 61.62 1.8C61.18 2.46 60.91 3.23 60.91 4.09L60.91 10.59C56.8 11 53.1 12.88 50.37 15.71C48.91 17.22 47.74 19.02 46.93 20.99C46.13 22.96 45.67 25.13 45.67 27.4C45.67 31.76 47.32 35.75 50.05 38.75C52.58 41.55 56.07 43.5 59.97 44.11L59.97 52.68C57.89 52.32 56 51.54 54.29 50.44C52.34 49.15 50.68 47.42 49.52 45.37C48.83 44.21 47.59 43.47 46.25 43.47C45.69 43.47 45.18 43.6 44.69 43.79C43.99 44.08 43.38 44.6 42.96 45.23C42.55 45.86 42.31 46.62 42.31 47.42C42.31 47.66 42.31 47.88 42.38 48.13C43.26 52.9 45.79 57.12 49.34 60.11C52.9 63.11 57.53 64.93 62.55 64.93C67.59 64.93 72.19 63.13 75.75 60.11C79.33 57.12 81.84 52.9 82.72 48.13C82.76 47.88 82.79 47.64 82.79 47.42C82.79 46.88 82.69 46.37 82.47 45.91C82.18 45.2 81.69 44.6 81.06 44.18L81.11 44.11Z" fill="#000000" fill-opacity="1.000000" fill-rule="nonzero"/>
	<path id="Vector" d="M59.43 34.88C57.97 34.27 56.72 33.22 55.85 31.93C54.97 30.64 54.46 29.08 54.46 27.37C54.46 25.38 55.17 23.55 56.36 22.14C57.31 20.99 58.58 20.14 59.99 19.65L59.99 23.11C59.36 23.5 58.82 24.01 58.41 24.62C57.89 25.4 57.58 26.35 57.58 27.37C57.58 28.06 57.72 28.71 57.97 29.32C58.36 30.22 58.99 30.98 59.77 31.51C60.57 32.05 61.52 32.37 62.57 32.37C63.25 32.37 63.91 32.22 64.52 31.98C65.42 31.59 66.18 30.95 66.71 30.17C67.25 29.37 67.56 28.42 67.56 27.37C67.56 26.37 67.27 25.42 66.74 24.62C66.32 24.01 65.79 23.5 65.15 23.11L65.15 19.65C66.59 20.14 67.83 20.99 68.78 22.14C69.98 23.55 70.68 25.38 70.68 27.37C70.68 28.49 70.46 29.57 70.05 30.54C69.44 32 68.39 33.24 67.1 34.12C65.81 35 64.25 35.51 62.55 35.51C61.43 35.51 60.35 35.29 59.38 34.88L59.43 34.88ZM61.3 24.52C61.65 24.38 61.86 24.04 61.86 23.67L61.86 19.38L63.33 19.38L63.33 23.67C63.33 24.04 63.54 24.38 63.89 24.52C64.42 24.77 64.88 25.16 65.23 25.67C65.54 26.16 65.74 26.74 65.74 27.4C65.74 27.84 65.64 28.25 65.49 28.62C65.25 29.18 64.86 29.66 64.35 30C63.84 30.35 63.25 30.54 62.6 30.54C62.16 30.54 61.74 30.44 61.38 30.3C60.82 30.05 60.33 29.66 59.99 29.15C59.65 28.64 59.45 28.06 59.45 27.4C59.45 26.76 59.65 26.18 59.96 25.67C60.28 25.18 60.74 24.77 61.3 24.52ZM70.88 32.98C71.95 31.39 72.58 29.44 72.58 27.4C72.58 24.96 71.71 22.7 70.24 20.97C68.78 19.24 66.76 18 64.45 17.58C64.45 17.58 64.45 17.58 64.42 17.58C64.42 17.58 64.37 17.58 64.35 17.58C64.35 17.58 64.32 17.58 64.3 17.58C64.3 17.58 64.28 17.58 64.25 17.58L60.91 17.58C60.91 17.58 60.89 17.58 60.87 17.58C60.87 17.58 60.84 17.58 60.82 17.58C60.82 17.58 60.77 17.58 60.74 17.58C60.74 17.58 60.74 17.58 60.72 17.58C58.41 18.02 56.38 19.24 54.92 20.97C53.46 22.7 52.58 24.94 52.58 27.4C52.58 28.79 52.85 30.1 53.36 31.3C54.12 33.1 55.38 34.61 56.99 35.7C58.58 36.78 60.52 37.41 62.57 37.41C63.96 37.41 65.27 37.14 66.47 36.63C68.27 35.87 69.78 34.61 70.88 33L70.88 32.98Z" fill="#000000" fill-opacity="1.000000" fill-rule="nonzero"/>
</svg>
