<svg width="145.000000" height="53.000000" viewBox="0 0 145 53" fill="none" xmlns="http://www.w3.org/2000/svg" xmlns:xlink="http://www.w3.org/1999/xlink">
	<desc>
			Created with Pixso.
	</desc>
	<defs/>
	<path id="Vector" d="M0 35.75C0 35.75 2.61 35.02 2.61 32.72L2.61 32.67C2.61 32.03 2.79 18.5 17.04 18.5L17.13 18.5C15.34 18.45 3.1 17.77 2.61 4.25C2.61 1.98 0 1.23 0 1.23L26.98 1.23L28.17 7.3C26.43 2.71 23.4 1.78 21.76 1.78L5.87 1.78L5.87 2.47C5.87 5.55 6.65 18.29 19.42 18.29L20.44 18.24C22.04 18.24 23.56 16.49 23.83 14.15L23.83 22.83C23.56 20.54 22.05 18.74 20.44 18.74C20.44 18.74 19.93 18.69 19.15 18.69C15.58 18.69 5.87 20.02 5.87 34.82L5.87 35.24L20.48 35.24C23.22 35.24 26.34 34.09 29.41 27.7L26.98 35.74L0 35.74L0 35.75Z" fill="#000000" fill-opacity="1.000000" fill-rule="nonzero"/>
	<path id="Vector" d="M31.24 35.71C31.24 35.71 33.85 34.98 33.85 32.68L33.85 4.22C33.85 1.93 31.24 1.33 31.24 1.33C31.24 1.33 35.18 1.05 37.1 0L37.1 32.68C37.1 34.97 39.72 35.71 39.72 35.71L31.24 35.71Z" fill="#000000" fill-opacity="1.000000" fill-rule="nonzero"/>
	<path id="Vector" d="M41.55 24.81C41.55 18.79 46.45 13.92 52.45 13.92C57.68 13.92 61.34 18.11 61.34 22.57L45.3 22.62C45.21 23.31 45.16 24.04 45.16 24.82C45.16 30.48 48.41 34.84 52.4 35.13L52.82 35.13C55.29 35.13 57.68 33.93 59.37 31.59L59.73 32.14C56.8 35.72 54.05 35.72 52.45 35.72C46.45 35.71 41.55 30.84 41.55 24.81ZM58.08 21.64C58.08 20.08 57.72 14.47 52.4 14.47C48.69 14.47 46.17 17.82 45.4 22.06L58.08 22.06L58.08 21.64Z" fill="#000000" fill-opacity="1.000000" fill-rule="nonzero"/>
	<path id="Vector" d="M62.53 47.2C62.25 46.24 62.07 45.27 62.07 44.35C62.07 41.69 63.36 39.29 66.75 37.92C70.74 36.26 77.24 37.05 81.05 34.7C81.83 34.24 82.28 33.64 82.28 32.95C82.28 32.17 81.73 31.25 80.45 30.2C78.76 31.4 76.55 32.13 74.17 32.13C71.83 32.13 69.68 31.44 67.98 30.24C65.42 28.45 63.95 26.01 63.95 23.03C63.95 18.02 68.53 13.92 74.17 13.92C74.31 13.92 74.81 13.92 75.59 14.01C75.82 12.78 76.28 11.54 77.06 10.43C78.71 8.08 81.36 6.84 84.02 6.84C85.76 6.84 87.51 7.39 89.01 8.45C91.17 10.01 92.41 12.36 92.59 14.84L92.59 15.29C92.59 16.44 92.31 18.79 90.12 20.95L87.6 19.16C89.34 17.87 90.39 15.94 90.39 13.74C90.39 13.23 90.34 12.68 90.21 12.14C89.43 8.78 86.4 7.4 84.2 7.4C81.64 7.4 79.12 8.55 77.51 10.75C76.78 11.81 76.32 12.92 76.13 14.11L76.68 14.2C81.13 15.21 84.43 18.79 84.43 23.03C84.43 25.74 83.05 28.22 80.9 29.87C81.72 30.56 84.11 32.68 84.11 34.84C84.11 37.05 81.73 39.25 73.03 40.03C66.66 40.63 63.08 42.38 63.08 45.91L63.17 46.83C63.54 49.08 65.83 50.78 69.73 50.78C70.69 50.78 71.79 50.64 72.98 50.41C83.28 48.25 84.15 36.85 103.12 36.76L103.26 36.76C110.18 36.76 118.97 39.89 125.67 47.94L123.01 51.47C123.01 51.47 117.01 37.68 102.95 37.36L102.4 37.36C88.24 37.36 86.05 51.11 73.91 52.85C73.36 52.94 72.8 53 72.22 53C68.08 53 63.63 50.97 62.53 47.2ZM80.76 23.03C80.76 18.29 77.83 14.43 74.16 14.43C70.55 14.43 67.56 18.29 67.56 23.03C67.56 27.76 70.54 31.58 74.16 31.58C77.84 31.58 80.76 27.76 80.76 23.03ZM100.78 32.68C99.04 34.79 96.84 35.75 94.27 35.75C93.81 35.75 93.36 35.7 92.85 35.66C89.28 35.21 86.85 32.77 86.85 30.06C86.85 29.78 86.85 29.46 86.94 29.14C87.9 24.82 92.39 23.68 95.74 23.17C96.93 23.03 99.68 22.8 100.73 21.05C100.96 20.69 101.05 20.14 101.05 19.49C101.05 17.42 99.82 14.48 96.48 14.48L96.24 14.48C95.7 14.53 94.92 14.72 94.18 15.12C94.18 15.12 95 14.07 97.15 13.97L97.61 13.97C100.46 13.97 102.47 15.58 103.11 17.23C103.29 17.65 103.38 18.06 103.38 18.53C103.38 20.36 101.69 22.25 97.34 23.62C94.45 24.5 91.06 25.41 90.55 29.14L90.5 29.69C90.5 31.35 91.1 34.75 94.67 35.02L95.13 35.02C96.96 35.02 98.52 34.24 100.03 32.59C100.72 31.8 102.37 29 104.02 26.34L104.02 30.02C104.02 30.02 104.02 32.22 104.2 33.24C104.34 34.15 105.02 34.66 105.76 34.66C105.76 34.66 104.85 35.77 103.29 35.77C102.12 35.75 100.92 35.26 100.78 32.68Z" fill="#000000" fill-opacity="1.000000" fill-rule="nonzero"/>
	<path id="Vector" d="M124.11 35.71C124.11 35.71 126.72 34.98 126.72 32.68L126.72 24.81C126.72 19.16 126.03 14.75 120.81 14.56L120.67 14.56C118.14 14.56 115.31 15.8 113.57 18.57L113.57 32.68C113.57 34.97 116.18 35.71 116.18 35.71L107.71 35.71C107.71 35.71 110.27 34.98 110.27 32.68L110.27 18.15C110.27 15.85 107.65 15.2 107.65 15.2C107.65 15.2 111.59 14.97 113.57 13.91L113.57 17.45C115.22 15.34 117.6 13.95 120.81 13.91L121.22 13.91C128.32 13.91 129.97 18.88 129.97 24.8L129.97 32.67C129.97 34.96 132.58 35.7 132.58 35.7L124.11 35.7L124.11 35.71Z" fill="#000000" fill-opacity="1.000000" fill-rule="nonzero"/>
	<path id="Vector" d="M139.04 35.53C136.34 34.89 135.33 32.45 135.33 29L135.33 14.47L132.12 14.47L132.12 13.92C132.12 13.92 136.89 13.65 138.63 8.86L138.63 13.92L143.53 13.92L143.53 14.47L138.63 14.47L138.63 28.49C138.68 30.1 138.39 33.64 140.37 34.61C140.73 34.79 141.19 34.88 141.69 34.88C142.8 34.88 144.07 34.42 145 33.32C144.03 34.92 142.62 35.43 142.11 35.57C141.65 35.66 141.2 35.76 140.73 35.76C140.19 35.76 139.64 35.66 139.04 35.53Z" fill="#000000" fill-opacity="1.000000" fill-rule="nonzero"/>
</svg>
