<svg width="52.013672" height="72.637085" viewBox="0 0 52.0137 72.6371" fill="none" xmlns="http://www.w3.org/2000/svg" xmlns:xlink="http://www.w3.org/1999/xlink">
	<desc>
			Created with Pixso.
	</desc>
	<defs/>
	<path id="Vector" d="M44.38 38.46C42.28 40.98 40.43 43.67 38.78 46.51L32.8 56.87L32.12 57.34L29.92 57.34L29.96 32.27L49.29 32.59L44.42 38.48L44.38 38.46ZM25.39 56.91L19.39 46.49C17.74 43.65 15.89 40.96 13.79 38.44L8.37 31.88L28.29 32.2L28.25 57.36L26.2 57.36L25.39 56.89L25.39 56.91ZM28.25 14.69L28.25 29.23L15.74 15.12C16.14 14.84 16.65 14.67 17.17 14.67L28.25 14.67L28.25 14.69ZM41 14.69L29.92 29L29.92 14.69L40.96 14.69C40.96 14.69 40.98 14.69 41 14.69ZM14.67 16.42L27.25 30.56L8.37 30.26L14.69 16.42L14.67 16.42ZM42.9 15.61L43.29 16.08L49.8 30.19C49.69 30.32 49.63 30.52 49.63 30.69C49.63 30.77 49.63 30.84 49.67 30.92L30.75 30.62L42.6 15.31C42.6 15.31 42.8 15.5 42.9 15.61ZM40.96 13.04L17.15 13.04C15.93 13.04 14.75 13.58 13.96 14.52C13.96 14.52 13.96 14.52 13.94 14.54L13.49 15.07C13.49 15.07 13.49 15.1 13.47 15.12C13.47 15.12 13.47 15.14 13.45 15.16C13.45 15.16 13.45 15.16 13.45 15.2C13.45 15.2 13.45 15.22 13.43 15.24L6.38 30.69C6.38 30.71 6.36 30.75 6.34 30.77C6.34 30.77 6.34 30.77 6.34 30.79C6.34 30.81 6.34 30.84 6.34 30.86C6.34 30.86 6.34 30.88 6.34 30.9C6.34 30.92 6.34 30.94 6.34 30.96C6.34 30.96 6.34 30.96 6.34 30.99C6.34 30.99 6.34 31.05 6.34 31.09L6.42 31.8C6.42 31.95 6.51 32.1 6.62 32.22L12.58 39.44C14.6 41.9 16.42 44.5 18.02 47.26L24.13 57.85C24.19 57.98 24.3 58.07 24.41 58.15L25.6 58.88C25.73 58.96 25.88 59.01 26.05 59.01L28.89 58.96C28.89 58.96 29.06 59.01 29.15 59.01C29.26 59.01 29.34 59.01 29.43 58.96L32.46 58.92C32.61 58.92 32.78 58.88 32.91 58.77L33.95 58.07C33.95 58.07 34.15 57.9 34.21 57.79L40.28 47.28C41.86 44.53 43.69 41.9 45.72 39.46L51.68 32.25C51.68 32.25 51.68 32.22 51.7 32.2C51.7 32.2 51.7 32.2 51.7 32.18C51.79 32.05 51.87 31.92 51.92 31.8C51.98 31.65 52 31.48 52 31.31C52 31.24 52 31.2 52 31.13C52.02 30.99 52 30.81 51.94 30.66L44.83 15.24C44.83 15.24 44.83 15.22 44.8 15.2C44.8 15.2 44.8 15.18 44.8 15.16C44.8 15.16 44.8 15.14 44.78 15.12C44.78 15.12 44.78 15.1 44.76 15.07L44.29 14.52C43.91 14.05 43.44 13.69 42.92 13.43C42.37 13.15 41.75 13 41.11 13L40.96 13.04Z" fill="#000000" fill-opacity="1.000000" fill-rule="nonzero"/>
	<path id="Vector" d="M39.38 55.89L41.81 60.33C41.94 60.57 42.13 60.76 42.39 60.91L46.83 63.34L42.39 65.78C42.15 65.9 41.96 66.1 41.81 66.35L39.38 70.8L36.94 66.35C36.82 66.12 36.62 65.93 36.37 65.78L31.92 63.34L36.37 60.91C36.6 60.78 36.79 60.59 36.94 60.33L39.38 55.89ZM35.53 59.48L30.81 62.06C30.58 62.19 30.39 62.38 30.26 62.62C30.13 62.83 30.07 63.09 30.07 63.32C30.07 63.56 30.13 63.81 30.26 64.03C30.39 64.24 30.58 64.45 30.81 64.58L35.53 67.16L38.12 71.88C38.25 72.12 38.44 72.31 38.67 72.44C38.89 72.57 39.14 72.63 39.38 72.63C39.61 72.63 39.87 72.57 40.08 72.44C40.3 72.31 40.51 72.12 40.64 71.88L43.22 67.16L47.94 64.58C48.18 64.45 48.37 64.26 48.5 64.03C48.63 63.81 48.69 63.56 48.69 63.32C48.69 63.09 48.63 62.83 48.5 62.62C48.37 62.4 48.18 62.19 47.94 62.06L43.22 59.48L40.64 54.76C40.51 54.52 40.32 54.33 40.08 54.2C39.87 54.07 39.61 54.01 39.38 54.01C39.14 54.01 38.89 54.07 38.67 54.2C38.46 54.33 38.25 54.52 38.12 54.76L35.53 59.48Z" fill="#000000" fill-opacity="1.000000" fill-rule="nonzero"/>
	<path id="Vector" d="M6.87 6.32L9.31 1.87L11.74 6.32C11.87 6.55 12.06 6.74 12.32 6.89L16.76 9.33L12.32 11.76C12.08 11.89 11.89 12.08 11.74 12.34L9.31 16.78L6.87 12.34C6.74 12.1 6.55 11.91 6.3 11.76L1.85 9.33L6.3 6.89C6.53 6.77 6.72 6.57 6.87 6.32ZM0.74 10.55L5.46 13.13L8.05 17.85C8.17 18.08 8.37 18.28 8.6 18.41C8.82 18.53 9.07 18.6 9.31 18.6C9.54 18.6 9.8 18.53 10.01 18.41C10.23 18.28 10.44 18.08 10.57 17.85L13.15 13.13L17.87 10.55C18.11 10.42 18.3 10.23 18.43 9.99C18.55 9.78 18.62 9.52 18.62 9.29C18.62 9.05 18.55 8.79 18.43 8.58C18.3 8.37 18.11 8.15 17.87 8.03L13.15 5.44L10.55 0.74C10.42 0.51 10.23 0.32 9.99 0.19C9.78 0.06 9.52 0 9.29 0C9.05 0 8.79 0.06 8.58 0.19C8.37 0.32 8.15 0.51 8.03 0.74L5.44 5.46L0.74 8.05C0.51 8.17 0.32 8.37 0.19 8.6C0.06 8.82 0 9.07 0 9.31C0 9.54 0.06 9.8 0.19 10.01C0.32 10.23 0.51 10.44 0.74 10.57L0.74 10.55Z" fill="#000000" fill-opacity="1.000000" fill-rule="nonzero"/>
</svg>
