<svg viewBox="0 0 37 12" xmlns="http://www.w3.org/2000/svg" xmlns:xlink="http://www.w3.org/1999/xlink" width="37.000000" height="12.000000" fill="none">
	<rect id="Layer_1" width="37.000000" height="12.000000" x="0.000000" y="0.000000" fill="rgb(255,255,255)" fill-opacity="0" />
	<path id="Vector" d="M11.6191 5.57135L11.6191 6.46158C11.6191 8.10977 11.1015 9.44511 10.0674 10.4671C9.03378 11.4896 7.69816 12 6.06053 12C4.31511 12 2.86806 11.4205 1.72146 10.2615C0.574342 9.10198 0 7.68697 0 6.01647C0 4.34596 0.568614 2.91236 1.70532 1.74752C2.84151 0.582153 4.25055 0 5.93087 0C6.98687 0 7.9507 0.244865 8.82341 0.733003C9.69664 1.2222 10.3741 1.87394 10.8599 2.68661L8.95202 3.80737C8.68334 3.33516 8.27719 2.95007 7.732 2.65368C7.18838 2.35729 6.58176 2.20857 5.91421 2.20857C4.83738 2.20857 3.95114 2.56923 3.25599 3.28842C2.56137 4.00761 2.21353 4.91749 2.21353 6.01647C2.21353 7.11544 2.56657 8.00301 3.27213 8.71158C3.97821 9.42015 4.91237 9.77443 6.07667 9.77443C6.93792 9.77443 7.65234 9.5795 8.21783 9.18962C8.78332 8.79922 9.1676 8.26328 9.37276 7.58233L5.94701 7.58233L5.94701 5.57135L11.6191 5.57135Z" fill="rgb(168.537,228.438,99.9414)" fill-rule="evenodd" />
	<path id="Vector" d="M16.7391 5.16016C16.5558 5.12723 16.3777 5.11076 16.2049 5.11076C15.7748 5.11076 15.4087 5.22655 15.1062 5.45708C14.6865 5.7864 14.4766 6.25382 14.4766 6.85828L14.4766 11.7705L12.3428 11.7705L12.3428 6.85828C12.3428 6.25382 12.4427 5.7046 12.6422 5.21009C12.8416 4.71558 13.1296 4.29808 13.5066 3.95708C13.8841 3.6166 14.347 3.36961 14.8963 3.21558C15.2416 3.11678 15.6123 3.06738 16.0112 3.06738C16.2486 3.06738 16.4907 3.08385 16.7391 3.11731L16.7391 5.16069L16.7391 5.16016Z" fill="rgb(255,255,255)" fill-rule="evenodd" />
	<path id="Vector" d="M19.4591 9.28041C19.8736 9.70906 20.3938 9.92311 21.0181 9.92311C21.6425 9.92311 22.1652 9.70906 22.5849 9.28041C23.0046 8.85176 23.2155 8.30785 23.2155 7.64868C23.2155 6.98951 23.0046 6.44507 22.5849 6.01642C22.1652 5.58777 21.6425 5.37319 21.0181 5.37319C20.3938 5.37319 19.8736 5.58777 19.4591 6.01642C19.0441 6.44507 18.8374 6.98898 18.8374 7.64868C18.8374 8.30838 19.0441 8.85176 19.4591 9.28041ZM24.0559 10.739C23.2264 11.5803 22.2131 12 21.0181 12C19.8231 12 18.8119 11.5803 17.9881 10.739C17.1638 9.89921 16.752 8.86876 16.752 7.64868C16.752 6.4286 17.1638 5.39815 17.9881 4.55785C18.8124 3.71702 19.8226 3.29688 21.0181 3.29688C22.2137 3.29688 23.2264 3.71702 24.0559 4.55785C24.8854 5.39868 25.2999 6.4286 25.2999 7.64868C25.2999 8.86876 24.8859 9.89868 24.0559 10.739Z" fill="rgb(255,255,255)" fill-rule="evenodd" />
	<path id="Vector" d="M34.9997 3.52734L36.9997 3.52734L34.644 11.7699L32.5997 11.7699L31.0725 6.77433L29.5431 11.7699L27.5009 11.7699L25.126 3.52734L27.3291 3.52734L28.7131 8.58825L30.1836 3.52734L32.1571 3.52734L33.6281 8.60472L34.9997 3.52734Z" fill="rgb(255,255,255)" fill-rule="evenodd" />
</svg>
