<svg viewBox="0 0 38.2061 10.7549" xmlns="http://www.w3.org/2000/svg" xmlns:xlink="http://www.w3.org/1999/xlink" width="38.206055" height="10.754883" fill="none" customFrame="#000000">
	<g id="Group 183304">
		<g id="Group">
			<path id="Vector" d="M11.5708 0.786188C11.8443 0.482999 11.6291 0 11.2217 0L4.88151 0C4.20818 0 3.56259 0.28693 3.11115 0.786188L0.122296 4.09545C-0.151244 4.39864 0.0639533 4.88259 0.47235 4.88259L6.81159 4.88259C7.48492 4.88259 8.13051 4.59566 8.58195 4.09545L11.5708 0.787145L11.5708 0.786188Z" fill="rgb(0,173,229)" fill-rule="nonzero" />
			<path id="Vector" d="M0.122296 6.66117C-0.151244 6.35798 0.0639533 5.87402 0.47235 5.87402L6.81159 5.87402C7.48492 5.87402 8.13051 6.16095 8.58195 6.66117L11.5708 9.96947C11.8443 10.2727 11.6291 10.7557 11.2217 10.7557L4.88151 10.7557C4.20818 10.7557 3.56259 10.4687 3.11115 9.96947L0.122296 6.66117Z" fill="rgb(238,246.13,255)" fill-rule="nonzero" />
		</g>
		<path id="Kissa" d="M13.8369 10.5568C13.8664 10.4534 13.8935 10.3255 13.918 10.1729C13.9475 10.0204 13.9721 9.83092 13.9918 9.60454Q14.0213 9.26499 14.036 8.79994Q14.0508 8.32751 14.0508 7.70007L14.0508 2.8946Q14.0508 2.26715 14.036 1.80211Q14.0213 1.32968 13.9918 0.990122Q13.9623 0.643183 13.918 0.414351Q13.8812 0.185519 13.8369 0.0305033L13.8369 0.000976562L15.607 0.000976562L15.607 0.0305033C15.5775 0.133847 15.548 0.261796 15.5185 0.414351C15.4939 0.566905 15.4717 0.758829 15.4521 0.990122C15.4373 1.21649 15.4226 1.48715 15.4078 1.80211Q15.3931 2.26715 15.3931 2.8946L15.3931 4.54071L19.7002 1.01965Q20.4229 0.429114 20.4229 0.000976562L22.4954 0.000976562L22.4954 0.0305033C22.2053 0.099399 21.9103 0.232269 21.6103 0.429114Q21.1678 0.717 20.6663 1.13776L16.8607 4.32664L21.4407 9.36095C21.6325 9.55779 21.7947 9.72265 21.9275 9.85552C22.0651 9.98347 22.1856 10.0917 22.2889 10.1803C22.3921 10.264 22.4855 10.3353 22.5691 10.3944Q22.7019 10.4756 22.842 10.5568L22.842 10.5863L20.6811 10.5863C20.6614 10.542 20.627 10.4854 20.5778 10.4165C20.5336 10.3476 20.4795 10.2763 20.4156 10.2025C20.3566 10.1286 20.2902 10.0524 20.2164 9.97363C20.1476 9.89489 20.0812 9.82107 20.0173 9.75218L15.3931 4.67358L15.3931 7.70007Q15.3931 8.32751 15.4078 8.79994C15.4226 9.10997 15.4373 9.37817 15.4521 9.60454C15.4717 9.83092 15.4939 10.0204 15.5185 10.1729C15.548 10.3255 15.5775 10.4534 15.607 10.5568L15.607 10.5863L13.8369 10.5863L13.8369 10.5568ZM23.6206 0.514714L23.6205 0.514876Q23.5721 0.643768 23.5721 0.790816Q23.5721 0.951528 23.625 1.09241L23.6253 1.09314L23.6255 1.09375Q23.6283 1.10101 23.6311 1.10823C23.6754 1.20173 23.7319 1.28539 23.8008 1.35921C23.8696 1.4281 23.9507 1.48469 24.0441 1.52898C24.1425 1.56835 24.2482 1.58804 24.3613 1.58804C24.5874 1.58804 24.7767 1.51176 24.9292 1.35921Q25.0246 1.2637 25.0802 1.1489Q25.1578 0.988642 25.1578 0.790816C25.1578 0.682552 25.1357 0.581669 25.0914 0.488167Q25.0469 0.376724 24.9729 0.290518L24.9729 0.290445Q24.9489 0.26249 24.9218 0.23719C24.853 0.163374 24.7694 0.106781 24.671 0.0674117C24.5776 0.0231216 24.4744 0.000976562 24.3613 0.000976562C24.2482 0.000976562 24.1425 0.0231216 24.0441 0.0674117C23.9507 0.106781 23.8696 0.163374 23.8008 0.23719C23.7319 0.306086 23.6754 0.389745 23.6311 0.488167Q23.6256 0.501343 23.6206 0.514714ZM32.0539 7.39742C31.8965 7.68285 31.8179 8.01994 31.8179 8.40871C31.8179 9.14688 32.0514 9.71773 32.5185 10.1213C32.9856 10.5199 33.6469 10.7192 34.5024 10.7192C34.763 10.7192 35.0015 10.6946 35.2178 10.6454C35.4391 10.6011 35.6382 10.542 35.8152 10.4682C35.9971 10.3895 36.1569 10.3033 36.2946 10.2098C36.4372 10.1163 36.5601 10.0253 36.6634 9.93672C36.6535 10.0745 36.6412 10.1926 36.6265 10.291C36.6167 10.3895 36.5994 10.478 36.5749 10.5568L36.5749 10.5863L38.2048 10.5863L38.2048 10.5568C38.1753 10.4534 38.1458 10.3255 38.1163 10.1729C38.0917 10.0204 38.0696 9.83092 38.0499 9.60454C38.0351 9.37817 38.0204 9.10997 38.0056 8.79994C37.9958 8.48499 37.9909 8.11836 37.9909 7.70007L37.9909 5.29364C37.9909 4.959 37.9368 4.64651 37.8286 4.35617C37.7205 4.0609 37.5484 3.805 37.3124 3.58847C37.0813 3.36702 36.7814 3.19478 36.4126 3.07176C36.0488 2.94381 35.6087 2.87983 35.0924 2.87983Q34.8122 2.87983 34.5541 2.90198C34.3869 2.91182 34.2222 2.9315 34.0599 2.96103C33.8977 2.99056 33.7379 3.02993 33.5805 3.07914C33.4232 3.12343 33.2634 3.18248 33.1012 3.2563L32.5996 4.29711L32.6734 4.3414C32.9094 4.15932 33.1282 4.00923 33.3298 3.89112C33.5363 3.77302 33.7305 3.67951 33.9124 3.61062C34.0993 3.54172 34.2787 3.49251 34.4508 3.46298C34.6229 3.43346 34.7974 3.41869 34.9744 3.41869C35.2301 3.41869 35.4637 3.45806 35.6751 3.5368C35.8914 3.61062 36.0758 3.72626 36.2282 3.88374C36.3806 4.03629 36.4986 4.23068 36.5822 4.46689C36.6658 4.70311 36.7076 4.98361 36.7076 5.3084L36.7076 5.68487C36.4126 5.68979 36.0881 5.70702 35.7341 5.73654C35.3801 5.76115 35.0212 5.81036 34.6573 5.88418C34.2935 5.95307 33.9419 6.05149 33.6027 6.17944C33.2634 6.30247 32.961 6.46487 32.6955 6.66663C32.43 6.8684 32.2161 7.112 32.0539 7.39742ZM30.6597 4.51118L30.5564 4.52595C30.522 4.41276 30.4655 4.29219 30.3868 4.16424C30.313 4.0363 30.2147 3.91819 30.0918 3.80992C29.9738 3.70166 29.8287 3.61308 29.6566 3.54418C29.4895 3.47037 29.2953 3.43346 29.074 3.43346C28.9216 3.43346 28.7765 3.4556 28.6389 3.49989C28.5061 3.54418 28.3881 3.61062 28.2849 3.6992C28.1865 3.78286 28.1079 3.88866 28.0489 4.01661Q27.9604 4.20853 27.9604 4.46689C27.9604 4.70803 28.0341 4.93932 28.1816 5.16077C28.334 5.3773 28.5233 5.59383 28.7495 5.81036Q29.0888 6.12777 29.4796 6.45257C29.7451 6.66909 29.991 6.89547 30.2172 7.13168C30.4433 7.36789 30.6302 7.62133 30.7777 7.89199C30.9301 8.15773 31.0063 8.44562 31.0063 8.75565C31.0063 9.00663 30.9621 9.25268 30.8736 9.49382C30.785 9.73003 30.6474 9.94164 30.4605 10.1286Q30.1877 10.4091 29.7525 10.5863Q29.3248 10.7561 28.7274 10.7561C28.4914 10.7561 28.2701 10.7339 28.0636 10.6896C27.862 10.6454 27.6752 10.5912 27.5031 10.5273C27.3359 10.4584 27.1835 10.3845 27.0458 10.3058C26.9131 10.2221 26.7951 10.1434 26.6918 10.0696L26.7656 8.66707L26.8836 8.66707C26.9328 8.89836 27.0065 9.10997 27.1048 9.30189C27.2032 9.49382 27.3236 9.65868 27.4662 9.79647C27.6137 9.92934 27.7809 10.0351 27.9677 10.1139C28.1546 10.1877 28.3586 10.2246 28.5799 10.2246C28.9437 10.2246 29.2313 10.1237 29.4428 9.92196Q29.5579 9.81456 29.6322 9.68393Q29.7673 9.44643 29.7673 9.13212C29.7673 8.8713 29.6935 8.63262 29.546 8.41609C29.4034 8.19464 29.2215 7.98303 29.0003 7.78127C28.779 7.5795 28.5405 7.37774 28.2849 7.17597C28.0341 6.9742 27.7981 6.76014 27.5769 6.53376C27.3556 6.30247 27.1712 6.05149 27.0237 5.78083C26.8811 5.50525 26.8098 5.19276 26.8098 4.84336C26.8098 4.55793 26.8615 4.29711 26.9647 4.0609C27.0729 3.81977 27.2204 3.61554 27.4072 3.44822C27.599 3.27598 27.8251 3.14311 28.0857 3.04961C28.3463 2.95611 28.6315 2.90936 28.9413 2.90936C29.3493 2.90936 29.6886 2.95365 29.959 3.04223C30.2344 3.12589 30.4433 3.20709 30.5859 3.28582L30.6597 4.51118ZM23.7049 4.82121C23.7196 5.13124 23.727 5.49541 23.727 5.9137L23.727 7.70007C23.727 8.11836 23.7196 8.48499 23.7049 8.79994C23.6951 9.10997 23.6803 9.37817 23.6606 9.60454C23.6459 9.83092 23.6238 10.0204 23.5943 10.1729C23.5697 10.3255 23.5426 10.4534 23.5131 10.5568L23.5131 10.5863L25.2168 10.5863L25.2168 10.5568C25.1873 10.4534 25.1603 10.3255 25.1357 10.1729C25.1111 10.0204 25.089 9.83092 25.0693 9.60454Q25.0398 9.26499 25.025 8.79994Q25.0103 8.32751 25.0103 7.70007L25.0103 5.9137Q25.0103 5.28626 25.025 4.82121Q25.0398 4.34879 25.0693 4.00923C25.089 3.78286 25.1111 3.59339 25.1357 3.44084C25.1603 3.28829 25.1873 3.16034 25.2168 3.05699L25.2168 3.02747L23.5131 3.02747L23.5131 3.05699C23.5426 3.16034 23.5697 3.28829 23.5943 3.44084C23.6238 3.59339 23.6459 3.78286 23.6606 4.00923C23.6803 4.2356 23.6951 4.50626 23.7049 4.82121ZM35.417 6.34184C35.83 6.29263 36.2602 6.26556 36.7076 6.26064L36.7076 8.48253Q36.7076 8.82209 36.6929 9.10259C36.6388 9.21577 36.5601 9.33388 36.4569 9.45691C36.3536 9.57502 36.2258 9.68574 36.0733 9.78908C35.9258 9.88751 35.7538 9.97117 35.5571 10.0401C35.3653 10.104 35.1515 10.136 34.9154 10.136C34.4041 10.136 34.0034 9.98347 33.7133 9.67836C33.4232 9.37325 33.2782 8.93035 33.2782 8.34966Q33.2782 7.67054 33.5584 7.26455C33.7502 6.98897 34.0034 6.77736 34.3181 6.62973C34.6376 6.48209 35.0039 6.38613 35.417 6.34184Z" fill="rgb(238,246,255)" fill-rule="evenodd" />
	</g>
</svg>
