<svg viewBox="0 0 27 13" xmlns="http://www.w3.org/2000/svg" xmlns:xlink="http://www.w3.org/1999/xlink" width="27.000000" height="13.000000" fill="none">
	<rect id="Layer_1" width="27.000000" height="13.000000" x="0.000000" y="0.000000" fill="rgb(255,255,255)" fill-opacity="0" />
	<path id="Vector" d="M20.2405 0C16.7135 0 13.8215 2.59787 13.5127 5.90992L17.6178 5.90992C17.895 4.76174 18.9624 3.90442 20.2421 3.90442C21.7324 3.90442 22.9408 5.0663 22.9408 6.49924C22.9408 7.93218 21.7324 9.09254 20.2421 9.09254C18.964 9.09254 17.8966 8.23673 17.6178 7.08856L13.5127 7.08856C13.8231 10.4006 16.7151 12.9985 20.2405 12.9985C23.9735 12.9985 27 10.0884 27 6.49924C27 2.91004 23.9735 0 20.2405 0Z" fill="rgb(255,255,255)" fill-rule="nonzero" />
	<path id="Vector" d="M9.3838 7.09008C9.10506 8.23826 8.03918 9.09406 6.7595 9.09406C5.26918 9.09406 4.06077 7.93218 4.06077 6.50076C4.06077 5.06934 5.26918 3.90594 6.7595 3.90594C8.0376 3.90594 9.10506 4.76174 9.3838 5.91144L13.4889 5.91144C13.1785 2.59787 10.2865 0 6.7595 0C3.02657 0 0 2.91004 0 6.50076C0 10.0915 3.02657 13 6.7595 13C10.285 13 13.1785 10.4021 13.4873 7.09008L9.38221 7.09008L9.3838 7.09008Z" fill="rgb(255,222,47)" fill-rule="nonzero" />
</svg>
