<svg width="199.000000" height="26.016113" viewBox="0 0 199 26.0161" fill="none" xmlns="http://www.w3.org/2000/svg" xmlns:xlink="http://www.w3.org/1999/xlink">
	<desc>
			Created with Pixso.
	</desc>
	<defs/>
	<path id="Vector" d="M84.59 0L71.6 0L71.6 0.06C71.79 0.11 71.98 0.19 72.17 0.27C72.55 0.47 72.9 0.74 73.23 1.04C73.71 1.46 74.15 1.96 74.57 2.45C75.19 3.19 75.81 3.95 76.39 4.72L83.25 13.49L76.14 21.34C75.39 22.17 74.61 23.03 73.79 23.78C73.28 24.25 72.72 24.71 72.12 25.05C71.74 25.28 71.33 25.44 70.9 25.59L70.9 25.69L80.22 25.69L80.22 25.67C79.76 25.59 79.3 25.43 78.92 25.15C78.43 24.79 78.08 24.3 78.08 23.65C78.08 23.26 78.12 22.87 78.25 22.49C78.38 22.12 78.58 21.76 78.81 21.45C79.08 21.06 79.36 20.7 79.68 20.35L84.41 14.97L88.5 20.15C88.8 20.54 89.12 20.95 89.4 21.34C89.58 21.58 89.73 21.84 89.88 22.1C90.02 22.35 90.15 22.62 90.24 22.9C90.32 23.15 90.37 23.39 90.37 23.65C90.37 24.33 90.08 24.92 89.5 25.26C89.12 25.49 88.64 25.62 88.16 25.69L88.16 25.7L101.16 25.7L101.16 25.62C101.09 25.6 101.03 25.59 100.96 25.56C100.71 25.46 100.46 25.33 100.22 25.18C99.92 24.99 99.61 24.74 99.36 24.5C99.03 24.19 98.72 23.85 98.44 23.5C98.14 23.15 97.84 22.8 97.53 22.43L88.77 11.29L94.72 4.75C95.63 3.76 96.6 2.68 97.58 1.79C98.09 1.33 98.66 0.86 99.28 0.53C99.61 0.35 99.96 0.22 100.33 0.11L100.33 0L91.02 0L91.02 0.01C91.47 0.09 91.91 0.26 92.29 0.52C92.83 0.89 93.17 1.43 93.17 2.11C93.17 2.71 93.02 3.27 92.72 3.79C92.36 4.46 91.77 5.14 91.26 5.69L87.61 9.81L84.72 6.12C84.24 5.5 83.75 4.86 83.3 4.23C83.05 3.87 82.83 3.5 82.65 3.09C82.51 2.76 82.41 2.4 82.41 2.05C82.41 1.39 82.68 0.83 83.22 0.47C83.57 0.21 84.1 0.08 84.59 0Z" fill="#000000" fill-opacity="1.000000" fill-rule="evenodd"/>
	<path id="Vector" d="M43.72 0.06L43.72 0L31.52 0L31.52 0.06C31.9 0.16 32.3 0.27 32.65 0.43C33.08 0.63 33.48 0.91 33.76 1.33C34.03 1.74 34.16 2.19 34.21 2.68C34.27 3.22 34.27 3.77 34.27 4.31L34.27 17.14C34.27 18.47 34.43 19.95 34.97 21.19C35.45 22.25 36.18 23.11 37.1 23.8C38.23 24.63 39.62 25.13 40.96 25.44C42.91 25.9 45.01 26.01 47.01 26.01C48.49 26.01 49.96 25.93 51.42 25.72C52.62 25.54 53.78 25.25 54.89 24.77C55.81 24.38 56.67 23.83 57.37 23.1C58.05 22.38 58.51 21.53 58.81 20.59C59.19 19.37 59.29 17.97 59.29 16.68L59.29 4.28C59.29 3.72 59.3 3.15 59.37 2.62C59.43 2.14 59.57 1.67 59.86 1.27C60.14 0.87 60.53 0.58 60.97 0.4C61.3 0.26 61.67 0.16 62.02 0.06L62.02 0L52.01 0L52.01 0.06C52.58 0.21 53.22 0.4 53.63 0.71C54.08 1.04 54.39 1.48 54.54 2.03C54.73 2.68 54.73 3.61 54.73 4.29L54.73 16.93C54.73 18.36 54.65 20.17 54.16 21.52C53.76 22.62 53.06 23.52 52.06 24.14C50.85 24.9 49.17 25.05 47.79 25.05C46.68 25.05 45.47 24.94 44.42 24.51C43.56 24.16 42.8 23.63 42.24 22.87C41.7 22.14 41.35 21.29 41.18 20.39C40.99 19.42 40.89 18.41 40.89 17.4L40.89 4.31C40.89 3.72 40.91 3.07 41.01 2.5C41.08 2.08 41.23 1.66 41.48 1.3C41.74 0.94 42.09 0.68 42.5 0.47C42.91 0.29 43.32 0.16 43.72 0.06Z" fill="#000000" fill-opacity="1.000000" fill-rule="evenodd"/>
	<path id="Vector" d="M12.19 0.06L0 0.06L0 0.12C0.39 0.22 0.77 0.34 1.14 0.5C1.57 0.69 1.96 0.97 2.23 1.38C2.5 1.79 2.65 2.26 2.68 2.73C2.74 3.27 2.76 3.82 2.76 4.37L2.76 21.44C2.76 21.99 2.74 22.56 2.68 23.1C2.62 23.57 2.49 24.04 2.22 24.42C1.95 24.84 1.55 25.12 1.11 25.31C0.76 25.46 0.38 25.57 0.01 25.67L0.01 25.73L23.28 25.73L23.76 19.09L21.44 19.09C21.25 19.71 21.04 20.31 20.8 20.92C20.5 21.68 20.09 22.45 19.55 23.06C19.04 23.63 18.44 24.06 17.74 24.35C16.93 24.68 15.96 24.74 15.08 24.74L9.41 24.74L9.41 4.33C9.41 3.77 9.43 3.2 9.51 2.65C9.57 2.18 9.73 1.7 10.03 1.33C10.32 0.94 10.7 0.66 11.14 0.48C11.48 0.34 11.84 0.24 12.19 0.14L12.19 0.06Z" fill="#000000" fill-opacity="1.000000" fill-rule="evenodd"/>
	<path id="Vector" d="M122.98 0.06L122.98 0L110.78 0L110.78 0.06C111.16 0.16 111.56 0.27 111.91 0.42C112.35 0.61 112.75 0.89 113.02 1.3C113.29 1.7 113.43 2.16 113.46 2.63C113.53 3.17 113.54 3.72 113.54 4.28L113.54 21.39C113.54 21.94 113.53 22.51 113.46 23.05C113.4 23.52 113.27 23.99 113 24.37C112.73 24.79 112.34 25.07 111.88 25.26C111.53 25.41 111.16 25.51 110.78 25.6L110.78 25.67L122.98 25.67L122.98 25.6C122.71 25.54 122.42 25.46 122.17 25.36C121.8 25.23 121.44 25.05 121.14 24.79C120.87 24.55 120.64 24.25 120.5 23.91C120.34 23.54 120.28 23.13 120.25 22.72C120.22 22.27 120.2 21.83 120.2 21.37L120.2 4.28C120.2 3.69 120.22 3.04 120.31 2.49C120.39 2.05 120.53 1.62 120.79 1.27C121.04 0.89 121.41 0.63 121.79 0.43C122.15 0.29 122.57 0.16 122.98 0.06Z" fill="#000000" fill-opacity="1.000000" fill-rule="evenodd"/>
	<path id="Vector" d="M141.2 13.34L146.8 25.75L151.89 25.75L161 4C161.38 3.22 161.85 2.31 162.39 1.64C162.78 1.13 163.26 0.71 163.83 0.42C164.12 0.27 164.4 0.16 164.72 0.06L156.05 0.06C156.44 0.17 156.81 0.34 157.13 0.6C158.7 1.85 158.16 4.49 157.4 6.08L151.28 20.82L144.45 5.92C144.21 5.25 143.96 4.55 143.79 3.85C143.67 3.38 143.61 2.91 143.61 2.42C143.61 1.66 143.93 1 144.55 0.56C144.87 0.34 145.25 0.19 145.64 0.08L133.67 0.08C134.05 0.19 134.41 0.34 134.73 0.53C135.22 0.84 135.64 1.25 135.96 1.77C137.86 4.85 139.59 9.78 141.2 13.34Z" fill="#000000" fill-opacity="1.000000" fill-rule="evenodd"/>
	<path id="Vector" d="M191.15 12.34L185.61 0.06L180.4 0.06L171.33 21.66C170.95 22.45 170.49 23.36 169.95 24.02C169.55 24.53 169.07 24.95 168.5 25.25C168.09 25.46 167.64 25.6 167.2 25.7L167.2 25.73L176.95 25.73C176.33 25.64 175.7 25.44 175.2 25.07C173.63 23.81 174.17 21.18 174.93 19.58L181.05 4.85L187.88 19.74C188.12 20.41 188.37 21.11 188.54 21.81C188.66 22.28 188.72 22.75 188.72 23.24C188.72 24.01 188.4 24.66 187.78 25.1C187.31 25.44 186.69 25.62 186.08 25.72L186.08 25.73L199 25.73L199 25.69C198.5 25.57 198.01 25.39 197.6 25.13C197.11 24.82 196.69 24.42 196.37 23.89C194.48 20.83 192.75 15.9 191.15 12.34Z" fill="#000000" fill-opacity="1.000000" fill-rule="evenodd"/>
</svg>
