<svg width="68.514648" height="72.615601" viewBox="0 0 68.5146 72.6156" fill="none" xmlns="http://www.w3.org/2000/svg" xmlns:xlink="http://www.w3.org/1999/xlink">
	<desc>
			Created with Pixso.
	</desc>
	<defs/>
	<path id="Vector" d="M4.05 2.58C4.93 1.98 5.98 1.64 7.11 1.64C7.85 1.64 8.58 1.79 9.24 2.07C10.23 2.47 11.06 3.18 11.66 4.05C12.25 4.93 12.6 5.98 12.6 7.11C12.6 7.96 12.4 8.77 12.04 9.5C11.7 10.23 11.19 10.84 10.57 11.36C10.33 11.55 10.2 11.87 10.29 12.19C10.35 12.49 10.61 12.75 10.91 12.81C12.13 13.09 13.19 13.77 13.96 14.71C14.73 15.65 15.18 16.85 15.18 18.15C15.18 19.41 14.75 20.56 14.03 21.5C13.86 21.74 13.81 22.04 13.9 22.29C14.01 22.57 14.22 22.76 14.52 22.83C15.76 23.08 16.87 23.77 17.64 24.71C18.43 25.65 18.9 26.86 18.9 28.19C18.9 28.74 18.81 29.28 18.66 29.77C18.58 30.05 18.66 30.34 18.83 30.56C19 30.77 19.32 30.88 19.6 30.81C19.92 30.75 20.24 30.73 20.58 30.73C21.35 30.73 22.06 30.88 22.72 31.16C23.7 31.56 24.54 32.27 25.13 33.14C25.73 34.02 26.07 35.06 26.07 36.2C26.07 36.41 26.07 36.62 26.03 36.84C25.99 37.11 26.12 37.39 26.33 37.58C26.54 37.76 26.84 37.82 27.12 37.71C27.7 37.52 28.29 37.41 28.93 37.41C29.92 37.41 30.83 37.67 31.63 38.12C32.42 38.57 33.1 39.21 33.57 39.98C33.72 40.21 33.97 40.36 34.27 40.36C34.57 40.36 34.83 40.21 34.98 39.98C35.47 39.21 36.13 38.57 36.92 38.12C37.71 37.67 38.63 37.41 39.61 37.41C40.25 37.41 40.85 37.52 41.43 37.71C41.71 37.8 42.01 37.76 42.22 37.58C42.43 37.41 42.56 37.11 42.52 36.84C42.5 36.62 42.48 36.41 42.48 36.2C42.48 35.45 42.62 34.72 42.9 34.06C43.31 33.08 44.01 32.24 44.89 31.65C45.76 31.05 46.81 30.71 47.94 30.71C48.26 30.71 48.6 30.73 48.92 30.79C49.2 30.84 49.5 30.75 49.69 30.54C49.89 30.32 49.95 30.02 49.87 29.75C49.72 29.25 49.63 28.72 49.63 28.17C49.63 26.84 50.1 25.62 50.89 24.68C51.68 23.74 52.77 23.06 54.01 22.8C54.29 22.74 54.52 22.55 54.63 22.27C54.73 21.99 54.67 21.69 54.5 21.48C53.77 20.56 53.37 19.39 53.35 18.13C53.35 16.82 53.79 15.63 54.56 14.69C55.33 13.75 56.4 13.07 57.62 12.79C57.92 12.72 58.17 12.49 58.24 12.17C58.3 11.87 58.19 11.53 57.96 11.34C57.34 10.82 56.85 10.2 56.49 9.48C56.14 8.75 55.93 7.94 55.93 7.09C55.93 6.32 56.08 5.61 56.36 4.95C56.76 3.97 57.47 3.13 58.34 2.54C59.22 1.94 60.27 1.6 61.4 1.6C62.15 1.6 62.87 1.75 63.53 2.02C64.52 2.43 65.35 3.13 65.95 4.01C66.54 4.89 66.89 5.93 66.89 7.06C66.89 8.37 66.44 9.56 65.67 10.5C64.9 11.44 63.83 12.13 62.62 12.4C62.32 12.47 62.06 12.7 62 13.02C61.93 13.32 62.04 13.66 62.27 13.86C62.89 14.37 63.38 14.99 63.75 15.71C64.09 16.44 64.3 17.25 64.3 18.11C64.3 19.43 63.83 20.65 63.04 21.59C62.25 22.53 61.16 23.21 59.92 23.47C59.65 23.53 59.41 23.72 59.3 24C59.2 24.28 59.26 24.58 59.43 24.79C60.16 25.71 60.57 26.88 60.59 28.14C60.59 28.91 60.44 29.62 60.16 30.28C59.75 31.26 59.05 32.1 58.17 32.69C57.3 33.29 56.25 33.63 55.12 33.63C54.8 33.63 54.46 33.61 54.14 33.55C53.86 33.5 53.56 33.59 53.37 33.8C53.18 34.02 53.11 34.32 53.2 34.59C53.35 35.09 53.43 35.62 53.43 36.17C53.43 36.94 53.28 37.65 53 38.31C52.6 39.29 51.89 40.13 51.02 40.72C50.14 41.32 49.1 41.66 47.96 41.66C47.32 41.66 46.73 41.56 46.15 41.36C45.87 41.28 45.57 41.32 45.36 41.49C45.14 41.66 45.02 41.94 45.06 42.24C45.08 42.45 45.1 42.67 45.1 42.88C45.1 43.63 44.95 44.35 44.67 45.02C44.27 46 43.56 46.83 42.69 47.43C41.86 47.99 40.85 48.33 39.78 48.37C37.84 47.62 36 47.37 34.44 47.37C32.84 47.37 31.5 47.62 30.56 47.9C29.9 48.09 29.43 48.28 29.19 48.37C29.13 48.37 29.06 48.37 28.98 48.37C28.21 48.37 27.5 48.22 26.84 47.94C25.86 47.54 25.03 46.83 24.43 45.96C23.83 45.08 23.49 44.03 23.49 42.9C23.49 42.69 23.49 42.48 23.53 42.26C23.57 41.98 23.45 41.71 23.23 41.51C23.02 41.34 22.72 41.28 22.44 41.39C21.87 41.58 21.27 41.68 20.63 41.68C19.86 41.68 19.15 41.54 18.49 41.26C17.51 40.85 16.68 40.15 16.08 39.27C15.48 38.4 15.14 37.35 15.14 36.22C15.14 35.66 15.22 35.13 15.37 34.64C15.46 34.36 15.37 34.06 15.2 33.85C15.01 33.63 14.71 33.53 14.43 33.59C14.11 33.65 13.79 33.68 13.45 33.68C12.7 33.68 11.98 33.53 11.31 33.25C10.33 32.84 9.5 32.14 8.9 31.26C8.3 30.39 7.96 29.34 7.96 28.21C7.96 26.95 8.39 25.79 9.12 24.86C9.29 24.62 9.33 24.32 9.24 24.06C9.14 23.79 8.92 23.6 8.62 23.53C7.38 23.27 6.27 22.59 5.5 21.65C4.71 20.71 4.25 19.49 4.25 18.17C4.25 17.32 4.44 16.5 4.8 15.78C5.14 15.05 5.66 14.43 6.27 13.92C6.51 13.73 6.64 13.41 6.55 13.09C6.49 12.79 6.23 12.53 5.93 12.47C4.71 12.19 3.65 11.51 2.88 10.57C2.11 9.63 1.66 8.43 1.66 7.13C1.66 6.36 1.81 5.65 2.09 4.99C2.49 4.01 3.2 3.18 4.07 2.58L4.05 2.58ZM41.9 59.22C41.9 61.72 41.39 64.05 40.51 65.93L38.12 63.83L38.12 56.42L41.07 54.16C41.07 54.16 41.11 54.12 41.13 54.09C41.62 55.63 41.9 57.36 41.9 59.2L41.9 59.22ZM37.71 69.64C36.92 70.26 36.05 70.67 35.17 70.82L35.17 68.77L37.5 65.48L39.7 67.4C39.12 68.3 38.44 69.07 37.71 69.62L37.71 69.64ZM30.94 69.64C30.41 69.21 29.9 68.7 29.43 68.1L31.33 65.73L33.5 68.79L33.5 70.84C32.61 70.69 31.73 70.28 30.94 69.66L30.94 69.64ZM26.76 59.22C26.76 57.38 27.03 55.65 27.53 54.12C27.55 54.14 27.59 54.18 27.61 54.2L30.56 56.46L30.56 64.09L28.51 66.65L28.23 66.12C27.31 64.2 26.78 61.83 26.78 59.26L26.76 59.22ZM33.53 49.07L33.53 51.62L31.22 54.86L28.64 52.88C28.46 52.75 28.27 52.68 28.06 52.71C28.14 52.53 28.21 52.36 28.29 52.19L28.72 51.4C29.06 50.83 29.43 50.31 29.83 49.86C30.04 49.78 30.47 49.61 31.07 49.46C31.71 49.29 32.54 49.12 33.53 49.05C33.53 49.05 33.53 49.07 33.53 49.1L33.53 49.07ZM34.36 67.08L32.22 64.09L32.22 56.29L34.36 53.3L36.5 56.29L36.5 64.09L34.36 67.08ZM38.76 49.76C39.19 50.23 39.59 50.78 39.96 51.4L40.38 52.19C40.47 52.36 40.55 52.53 40.62 52.71C40.42 52.71 40.23 52.75 40.06 52.88L37.48 54.86L35.17 51.62L35.17 49.07C35.17 49.07 35.17 49.05 35.17 49.03C36.26 49.1 37.48 49.31 38.76 49.76ZM1.21 3.13C0.44 4.27 0 5.65 0 7.13C0 8.82 0.59 10.4 1.58 11.61C2.28 12.47 3.18 13.17 4.2 13.64C3.84 14.07 3.54 14.54 3.28 15.05C2.84 15.99 2.58 17.06 2.58 18.17C2.58 19.9 3.2 21.48 4.2 22.7C4.97 23.64 5.98 24.36 7.15 24.81C6.62 25.82 6.3 26.97 6.3 28.19C6.3 29.17 6.49 30.11 6.85 30.96C7.38 32.24 8.3 33.33 9.44 34.1C10.57 34.87 11.96 35.32 13.43 35.32C13.45 35.32 13.49 35.32 13.51 35.32C13.47 35.62 13.45 35.92 13.45 36.22C13.45 37.2 13.64 38.14 14.01 38.99C14.54 40.28 15.46 41.36 16.59 42.13C17.72 42.9 19.11 43.35 20.58 43.35C20.99 43.35 21.42 43.31 21.8 43.24C21.84 44.1 22.04 44.93 22.36 45.68C22.89 46.96 23.81 48.05 24.94 48.82C25.75 49.37 26.69 49.76 27.72 49.93C27.57 50.14 27.44 50.36 27.31 50.59L26.86 51.45C25.77 53.67 25.13 56.36 25.13 59.24C25.13 62.06 25.73 64.67 26.76 66.82L27.29 67.87C28.02 69.13 28.89 70.18 29.92 70.99C30.94 71.78 32.1 72.33 33.33 72.5C33.38 72.5 33.42 72.5 33.46 72.5L33.93 72.5C34.06 72.57 34.19 72.61 34.34 72.61C34.49 72.61 34.64 72.57 34.74 72.5L35.19 72.5C35.19 72.5 35.28 72.5 35.32 72.5C36.56 72.31 37.71 71.78 38.74 70.99C39.76 70.2 40.64 69.15 41.36 67.91L41.9 66.87C42.92 64.67 43.52 62.06 43.52 59.26C43.52 56.36 42.88 53.67 41.79 51.47L41.34 50.63C41.21 50.38 41.07 50.14 40.92 49.93C41.41 49.84 41.9 49.69 42.35 49.5C43.63 48.97 44.72 48.05 45.49 46.92C46.19 45.87 46.64 44.61 46.7 43.27C47.11 43.33 47.52 43.37 47.92 43.37C48.9 43.37 49.84 43.18 50.7 42.82C51.98 42.28 53.07 41.36 53.84 40.23C54.61 39.1 55.05 37.71 55.05 36.24C55.05 35.94 55.05 35.64 54.99 35.34C55.01 35.34 55.05 35.34 55.08 35.34C56.06 35.34 57 35.15 57.85 34.79C59.13 34.25 60.22 33.33 60.99 32.2C61.76 31.07 62.21 29.68 62.21 28.21C62.21 26.99 61.91 25.84 61.36 24.83C62.51 24.39 63.51 23.66 64.3 22.72C65.33 21.48 65.93 19.9 65.93 18.19C65.93 17.08 65.67 16.01 65.22 15.07C64.96 14.56 64.67 14.09 64.3 13.66C65.33 13.19 66.22 12.51 66.93 11.63C67.91 10.42 68.51 8.86 68.51 7.15C68.51 6.17 68.32 5.23 67.96 4.37C67.42 3.09 66.5 2 65.37 1.23C64.24 0.44 62.87 0 61.4 0C60.42 0 59.48 0.19 58.62 0.55C57.34 1.08 56.25 2 55.48 3.13C54.71 4.27 54.26 5.65 54.26 7.13C54.26 8.24 54.52 9.31 54.97 10.25C55.23 10.76 55.52 11.23 55.89 11.66C54.86 12.13 53.97 12.81 53.26 13.69C52.28 14.9 51.68 16.46 51.68 18.17C51.68 19.39 51.98 20.54 52.53 21.54C51.38 21.99 50.38 22.72 49.59 23.66C48.56 24.9 47.96 26.48 47.96 28.19C47.96 28.49 47.96 28.79 48.03 29.08C48.01 29.08 47.96 29.08 47.94 29.08C46.96 29.08 46.02 29.28 45.17 29.64C43.88 30.17 42.8 31.09 42.03 32.22C41.32 33.27 40.87 34.53 40.81 35.88C40.4 35.81 40 35.77 39.59 35.77C38.33 35.77 37.14 36.11 36.09 36.69C35.41 37.07 34.79 37.58 34.25 38.18C33.72 37.58 33.12 37.09 32.42 36.69C31.39 36.11 30.19 35.77 28.91 35.77C28.51 35.77 28.08 35.81 27.7 35.88C27.65 35.02 27.46 34.19 27.14 33.44C26.61 32.16 25.69 31.07 24.56 30.3C23.42 29.53 22.04 29.08 20.56 29.08C20.54 29.08 20.5 29.08 20.48 29.08C20.52 28.79 20.54 28.49 20.54 28.19C20.54 26.46 19.92 24.88 18.92 23.66C18.15 22.72 17.15 21.99 15.97 21.54C16.5 20.54 16.83 19.39 16.83 18.17C16.83 16.48 16.23 14.9 15.24 13.69C14.54 12.83 13.64 12.13 12.62 11.66C12.98 11.23 13.28 10.76 13.54 10.25C13.98 9.31 14.24 8.24 14.24 7.13C14.24 6.15 14.05 5.21 13.69 4.35C13.15 3.07 12.23 1.98 11.1 1.21C9.97 0.44 8.6 0 7.11 0C6.12 0 5.18 0.19 4.33 0.55C3.05 1.08 1.96 2 1.19 3.13L1.21 3.13Z" fill="#000000" fill-opacity="1.000000" fill-rule="nonzero"/>
	<path id="Vector" d="M62.83 7.79C64.09 7.79 65.11 6.77 65.11 5.51C65.11 4.25 64.09 3.22 62.83 3.22C61.57 3.22 60.54 4.25 60.54 5.51C60.54 6.77 61.57 7.79 62.83 7.79Z" fill="#000000" fill-opacity="1.000000" fill-rule="nonzero"/>
	<path id="Vector" d="M60.24 18.83C61.5 18.83 62.53 17.81 62.53 16.55C62.53 15.29 61.5 14.26 60.24 14.26C58.98 14.26 57.96 15.29 57.96 16.55C57.96 17.81 58.98 18.83 60.24 18.83Z" fill="#000000" fill-opacity="1.000000" fill-rule="nonzero"/>
	<path id="Vector" d="M56.53 28.85C57.79 28.85 58.81 27.82 58.81 26.56C58.81 25.3 57.79 24.28 56.53 24.28C55.27 24.28 54.24 25.3 54.24 26.56C54.24 27.82 55.27 28.85 56.53 28.85Z" fill="#000000" fill-opacity="1.000000" fill-rule="nonzero"/>
	<path id="Vector" d="M49.37 36.88C50.63 36.88 51.66 35.85 51.66 34.59C51.66 33.33 50.63 32.31 49.37 32.31C48.11 32.31 47.09 33.33 47.09 34.59C47.09 35.85 48.11 36.88 49.37 36.88Z" fill="#000000" fill-opacity="1.000000" fill-rule="nonzero"/>
	<path id="Vector" d="M41.02 43.56C42.28 43.56 43.31 42.54 43.31 41.28C43.31 40.85 43.18 40.45 42.99 40.1C42.9 40 42.82 39.87 42.73 39.76C42.3 39.29 41.71 38.99 41.02 38.99C39.76 38.99 38.74 40.02 38.74 41.28C38.74 42.54 39.76 43.56 41.02 43.56Z" fill="#000000" fill-opacity="1.000000" fill-rule="nonzero"/>
	<path id="Vector" d="M27.48 43.56C28.74 43.56 29.77 42.54 29.77 41.28C29.77 40.02 28.74 38.99 27.48 38.99C26.8 38.99 26.2 39.29 25.77 39.76C25.69 39.89 25.6 40 25.52 40.1C25.3 40.45 25.2 40.85 25.2 41.28C25.2 42.54 26.22 43.56 27.48 43.56Z" fill="#000000" fill-opacity="1.000000" fill-rule="nonzero"/>
	<path id="Vector" d="M19.15 36.88C20.41 36.88 21.44 35.85 21.44 34.59C21.44 33.33 20.41 32.31 19.15 32.31C17.89 32.31 16.87 33.33 16.87 34.59C16.87 35.85 17.89 36.88 19.15 36.88Z" fill="#000000" fill-opacity="1.000000" fill-rule="nonzero"/>
	<path id="Vector" d="M9.71 26.56C9.71 27.82 10.74 28.85 12 28.85C13.26 28.85 14.28 27.82 14.28 26.56C14.28 25.3 13.26 24.28 12 24.28C10.74 24.28 9.71 25.3 9.71 26.56Z" fill="#000000" fill-opacity="1.000000" fill-rule="nonzero"/>
	<path id="Vector" d="M6 16.55C6 17.81 7.02 18.83 8.28 18.83C9.54 18.83 10.57 17.81 10.57 16.55C10.57 15.29 9.54 14.26 8.28 14.26C7.02 14.26 6 15.29 6 16.55Z" fill="#000000" fill-opacity="1.000000" fill-rule="nonzero"/>
	<path id="Vector" d="M5.68 7.79C6.94 7.79 7.96 6.77 7.96 5.51C7.96 4.25 6.94 3.22 5.68 3.22C4.42 3.22 3.39 4.25 3.39 5.51C3.39 6.77 4.42 7.79 5.68 7.79Z" fill="#000000" fill-opacity="1.000000" fill-rule="nonzero"/>
</svg>
