<svg width="113.000000" height="46.005859" viewBox="0 0 113 46.0059" fill="none" xmlns="http://www.w3.org/2000/svg" xmlns:xlink="http://www.w3.org/1999/xlink">
	<desc>
			Created with Pixso.
	</desc>
	<defs/>
	<path id="Vector" d="M109.17 9.19L109.17 35.49L113 35.49L113 9.19L109.17 9.19ZM113 0L109.17 0L109.17 3.87L113 3.87L113 0Z" fill="#000000" fill-opacity="1.000000" fill-rule="evenodd"/>
	<path id="Vector" d="M71.81 35.49L75.71 35.49L75.71 22.34L75.71 9.19L71.81 9.19L71.81 12.76C69.37 10.29 66.01 8.76 62.3 8.76C54.89 8.76 48.89 14.84 48.89 22.33C48.89 29.83 54.89 35.9 62.3 35.9C65.08 35.9 67.79 35.04 70.05 33.4L71.81 32.13L71.81 35.49ZM52.79 22.34C52.79 17.02 57.05 12.72 62.3 12.72C67.55 12.72 71.81 17.02 71.81 22.34C71.81 27.65 67.55 31.96 62.3 31.96C57.04 31.96 52.79 27.65 52.79 22.34Z" fill="#000000" fill-opacity="1.000000" fill-rule="evenodd"/>
	<path id="Vector" d="M80.53 39.58C80.16 40.34 80.21 41.18 80.65 41.9C81.1 42.62 81.81 43.03 82.66 43.03L83.4 43.03L86.81 43.03L99.93 43.03C101.04 43.03 101.97 43.96 101.97 45.1C101.97 45.42 101.89 45.73 101.76 46L105.8 46C105.85 45.7 105.87 45.41 105.87 45.1C105.87 41.78 103.19 39.08 99.93 39.08L99.64 39.08L85.53 39.08C87.27 37.13 89.78 35.91 92.59 35.91C100 35.91 106 29.83 106 22.34C106 19.28 105 16.45 103.31 14.18L106 12.61L104.04 9.19L100.4 11.32C98.2 9.72 95.5 8.77 92.58 8.77C85.17 8.77 79.17 14.84 79.17 22.34C79.17 27.25 81.75 31.55 85.61 33.93C83.59 35.18 81.91 36.97 80.78 39.08C80.69 39.24 80.61 39.41 80.53 39.58ZM92.59 31.96C87.34 31.96 83.08 27.65 83.08 22.34C83.08 17.02 87.34 12.72 92.59 12.72C97.84 12.72 102.1 17.02 102.1 22.34C102.1 27.65 97.84 31.96 92.59 31.96Z" fill="#000000" fill-opacity="1.000000" fill-rule="evenodd"/>
	<path id="Vector" d="M34.26 29.87L48 14.05L48 9.19L27.55 9.19L27.55 13.21L43.06 13.21L27.55 30.65L27.55 35.07C30.23 33.58 33.55 33.32 36.58 34.64C37.43 35.02 38.3 35.3 39.18 35.49C40.81 35.86 42.45 35.92 44.05 35.71C44.47 35.66 44.89 35.59 45.29 35.49C45.58 35.43 45.86 35.36 46.14 35.28C46.77 35.1 47.39 34.87 47.99 34.61L47.99 30.03C47.02 30.69 45.95 31.17 44.82 31.47C43.16 31.9 41.38 31.93 39.65 31.47C39.15 31.34 38.65 31.16 38.15 30.95C36.88 30.38 35.57 30.03 34.26 29.87Z" fill="#000000" fill-opacity="1.000000" fill-rule="evenodd"/>
	<path id="Vector" d="M13.4 8.94C6 8.94 0 15.01 0 22.51C0 30.01 6 36.08 13.4 36.08C20.82 36.08 26.81 30 26.81 22.51C26.81 15.02 20.82 8.94 13.4 8.94ZM3.9 22.51C3.9 17.2 8.15 12.89 13.4 12.89C18.66 12.89 22.91 17.2 22.91 22.51C22.91 27.82 18.66 32.13 13.4 32.13C8.15 32.13 3.9 27.82 3.9 22.51Z" fill="#000000" fill-opacity="1.000000" fill-rule="evenodd"/>
</svg>
