<svg viewBox="0 0 34 13.2598" xmlns="http://www.w3.org/2000/svg" xmlns:xlink="http://www.w3.org/1999/xlink" width="34.000000" height="13.259766" fill="none" customFrame="#000000">
	<g id="Group 183302">
		<path id="Vector" d="M16.4381 5.20606C16.8229 5.20606 17.1414 5.0714 17.3948 4.80156C17.6481 4.53225 17.7748 4.19856 17.7748 3.8005C17.7748 3.40244 17.6481 3.05802 17.3948 2.793C17.1414 2.52799 16.8224 2.39548 16.4381 2.39548L14.8269 2.39548L14.8269 5.2066L16.4381 5.2066L16.4381 5.20606ZM16.4381 0.683594C17.3206 0.683594 18.0631 0.984019 18.6657 1.5854C19.2688 2.18679 19.5699 2.92498 19.5699 3.79996C19.5699 4.67495 19.2688 5.41368 18.6657 6.01506C18.0636 6.61591 17.3206 6.91634 16.4381 6.91634L14.8269 6.91634L14.8269 9.96672L13.0186 9.96672L13.0186 0.683594L16.4376 0.683594L16.4381 0.683594Z" fill="rgb(255,255,255)" fill-rule="evenodd" />
		<path id="Vector" d="M21.8383 7.99796C22.1791 8.3472 22.6116 8.52156 23.1358 8.52156C23.6599 8.52156 24.0945 8.3472 24.439 7.99796C24.7841 7.64872 24.9563 7.19969 24.9563 6.65195C24.9563 6.10421 24.7841 5.65518 24.439 5.30594C24.094 4.95669 23.6594 4.78181 23.1358 4.78181C22.6121 4.78181 22.1791 4.95669 21.8383 5.30594C21.4981 5.65518 21.3274 6.10367 21.3274 6.65195C21.3274 7.20022 21.4981 7.64925 21.8383 7.99796ZM24.9563 3.33601L26.6465 3.33601L26.6465 9.96682L24.9563 9.96682L24.9563 9.18464C24.4496 9.83002 23.7379 10.1524 22.8204 10.1524C21.903 10.1524 21.1981 9.81446 20.5732 9.13796C19.9489 8.46201 19.6367 7.63262 19.6367 6.65141C19.6367 5.6702 19.9494 4.84082 20.5732 4.16486C21.1981 3.48891 21.947 3.15039 22.8204 3.15039C23.7373 3.15039 24.4491 3.47335 24.9563 4.11819L24.9563 3.33601Z" fill="rgb(255,255,255)" fill-rule="evenodd" />
		<path id="Vector" d="M32.1918 3.33594L34.0001 3.33594L31.6114 9.97801C31.2706 10.9243 30.8191 11.6137 30.2573 12.0424C29.6944 12.4715 28.9953 12.6636 28.1569 12.6191L28.1569 11.0279C28.6111 11.037 28.9715 10.9394 29.2375 10.736C29.5041 10.5327 29.7161 10.206 29.873 9.75484L27.1875 3.33647L29.0345 3.33647L30.7422 7.79242L32.1923 3.33647L32.1918 3.33594Z" fill="rgb(255,255,255)" fill-rule="evenodd" />
		<path id="Vector" d="M7.20216 0.525743C6.53542 0.189375 5.78441 0 4.99154 0L1.32871 0C0.596779 0 0 0.604068 0 1.3444L0 2.37014L2.17777 4.5745C2.46026 4.85991 2.91977 4.85991 3.20173 4.5745L7.20216 0.525743Z" fill="rgb(96,240,161)" fill-rule="evenodd" />
		<path id="Vector" d="M8.97342 2.01474L4.25537 6.79043C3.39359 7.66327 1.9875 7.66327 1.12572 6.79043L0 5.65149L0 11.9121C0 12.4674 0.31323 12.9416 0.819909 13.1541C1.32712 13.367 1.87991 13.2555 2.26787 12.8628L4.99154 10.1053C7.73746 10.1053 9.9836 7.83172 9.9836 5.05279C9.9836 3.9144 9.60677 2.8613 8.97342 2.01367" fill="rgb(40,116,237)" fill-rule="evenodd" />
	</g>
</svg>
