<svg width="61.466797" height="72.615601" viewBox="0 0 61.4668 72.6156" fill="none" xmlns="http://www.w3.org/2000/svg" xmlns:xlink="http://www.w3.org/1999/xlink">
	<desc>
			Created with Pixso.
	</desc>
	<defs/>
	<path id="Vector" d="M34.44 28.02C34.27 27.89 34.08 27.8 33.85 27.8C33.48 27.8 33.1 27.8 32.71 27.8C31.05 27.8 29.32 27.72 27.76 27.59C27.55 27.59 27.33 27.63 27.16 27.76C26.71 27.7 26.29 27.65 25.88 27.59C25.03 27.46 24.32 27.33 23.85 27.25C23.62 27.2 23.42 27.16 23.3 27.14C23.23 27.14 23.19 27.12 23.15 27.12C23.15 27.12 23.12 27.12 23.1 27.12C23.04 27.12 22.98 27.12 22.91 27.12C22.72 27.12 22.55 27.1 22.36 27.03C17.15 25.5 12.53 22.55 8.96 18.64C5.4 14.73 2.86 9.86 1.81 4.46C1.79 4.31 1.77 4.16 1.77 4.03C1.77 3.73 1.83 3.43 1.94 3.18C2.11 2.77 2.39 2.43 2.75 2.17C3.11 1.94 3.54 1.79 4.03 1.79C4.57 1.79 5.08 1.98 5.46 2.3C5.85 2.62 6.15 3.09 6.25 3.63C7.38 9.35 10.48 14.39 14.8 17.98C19.11 21.57 24.68 23.72 30.73 23.72C36.79 23.72 42.35 21.57 46.66 17.98C50.98 14.39 54.07 9.37 55.2 3.63C55.31 3.09 55.59 2.64 55.99 2.3C56.38 1.98 56.89 1.79 57.43 1.79C57.75 1.79 58.04 1.85 58.32 1.96C58.73 2.13 59.07 2.43 59.33 2.79C59.56 3.16 59.71 3.58 59.71 4.03C59.71 4.18 59.71 4.31 59.67 4.46C58.62 9.86 56.08 14.73 52.51 18.64C48.95 22.55 44.33 25.5 39.12 27.03C39.08 27.03 39.06 27.03 39.04 27.06C38.12 27.44 37.03 27.72 35.88 27.87C35.43 27.93 34.96 27.97 34.49 28.02L34.44 28.02ZM33.46 30.47C33.46 30.86 33.38 31.2 33.25 31.54C33.04 32.03 32.69 32.44 32.27 32.74C31.84 33.04 31.31 33.21 30.75 33.21C30.37 33.21 30.02 33.12 29.68 32.99C29.19 32.78 28.79 32.44 28.49 32.01C28.19 31.58 28.02 31.05 28.02 30.49C28.02 30.22 28.06 29.94 28.14 29.68C29.4 29.81 30.81 29.9 32.25 29.9C32.63 29.9 33.01 29.9 33.4 29.9C33.44 30.09 33.46 30.3 33.46 30.51L33.46 30.47ZM33.25 38.91C33.04 39.4 32.69 39.81 32.27 40.1C31.84 40.4 31.31 40.57 30.75 40.57C30.37 40.57 30.02 40.49 29.68 40.36C29.19 40.15 28.79 39.81 28.49 39.38C28.19 38.95 28.02 38.42 28.02 37.86C28.02 37.48 28.1 37.14 28.23 36.79C28.44 36.3 28.79 35.9 29.21 35.6C29.64 35.3 30.17 35.13 30.73 35.13C31.11 35.13 31.46 35.21 31.8 35.34C32.29 35.56 32.69 35.9 32.99 36.32C33.29 36.75 33.46 37.29 33.46 37.84C33.46 38.23 33.38 38.57 33.25 38.91ZM33.74 44.65C33.74 44.65 33.74 44.65 33.7 44.7L31.35 47.07C31.26 47.15 31.18 47.2 31.09 47.24C31.01 47.28 30.9 47.3 30.79 47.3C30.69 47.3 30.58 47.3 30.49 47.24C30.41 47.2 30.3 47.15 30.24 47.07L27.85 44.67L27.8 44.63C27.59 44.44 27.37 44.25 27.16 44.08L27.97 43.56C27.97 43.56 28 43.56 28.02 43.54C28.02 43.54 28.04 43.54 28.06 43.52C28.81 42.9 29.77 42.54 30.79 42.54C31.84 42.54 32.78 42.9 33.53 43.52L34.25 44.27C34.08 44.4 33.93 44.55 33.78 44.7L33.74 44.65ZM37.09 44.53C37.86 44.23 38.7 44.06 39.51 44.06C40.32 44.06 41.17 44.21 41.94 44.53C42.73 44.85 43.46 45.32 44.08 45.94C44.87 46.73 45.46 47.64 45.87 48.63C46.28 49.61 46.47 50.66 46.47 51.7C46.47 52.75 46.28 53.79 45.87 54.78C45.46 55.76 44.89 56.68 44.08 57.47L30.75 70.8L20.46 60.5C20.37 60.39 20.31 60.33 20.26 60.29L17.42 57.45C16.63 56.66 16.03 55.74 15.63 54.76C15.22 53.77 15.03 52.73 15.03 51.68C15.03 50.63 15.22 49.59 15.63 48.6C16.03 47.62 16.61 46.7 17.42 45.91C18.06 45.27 18.79 44.8 19.56 44.5C20.35 44.18 21.16 44.03 21.99 44.03C22.83 44.03 23.64 44.18 24.41 44.5C25.18 44.8 25.9 45.27 26.52 45.89C26.52 45.89 26.56 45.91 26.56 45.94L28.96 48.33C29.21 48.58 29.49 48.78 29.81 48.88C30.13 49.01 30.45 49.07 30.77 49.07C31.09 49.07 31.43 49.01 31.73 48.88C32.03 48.75 32.33 48.56 32.59 48.33L34.94 45.98C34.94 45.98 34.94 45.96 34.98 45.94C35.6 45.32 36.32 44.85 37.09 44.55L37.09 44.53ZM39.63 28.68C45.14 27.03 50.01 23.94 53.79 19.79C57.58 15.65 60.27 10.48 61.38 4.76C61.42 4.5 61.46 4.25 61.46 3.99C61.46 3.45 61.36 2.92 61.14 2.45C60.84 1.72 60.33 1.13 59.69 0.68C59.07 0.25 58.28 0 57.45 0C56.49 0 55.59 0.34 54.88 0.91C54.18 1.49 53.69 2.3 53.5 3.26C52.45 8.58 49.57 13.26 45.55 16.59C41.54 19.92 36.37 21.93 30.75 21.93C25.11 21.93 19.96 19.92 15.95 16.59C11.93 13.26 9.05 8.58 8 3.26C7.81 2.32 7.32 1.51 6.62 0.91C5.91 0.34 4.99 0 4.03 0C3.48 0 2.94 0.1 2.45 0.32C1.72 0.64 1.11 1.15 0.68 1.79C0.25 2.43 0 3.2 0 4.01C0 4.27 0.02 4.52 0.08 4.78C1.19 10.5 3.88 15.67 7.66 19.81C11.44 23.96 16.33 27.08 21.87 28.7L21.89 28.7C22.19 28.79 22.51 28.83 22.8 28.85C23.1 28.91 24.15 29.13 25.65 29.34C25.86 29.36 26.09 29.4 26.33 29.43C26.24 29.75 26.22 30.09 26.22 30.45C26.22 31.07 26.35 31.67 26.58 32.2C26.93 32.99 27.46 33.65 28.17 34.15C27.72 34.47 27.31 34.85 27.01 35.32C26.52 36.05 26.24 36.9 26.24 37.84C26.24 38.46 26.37 39.06 26.61 39.59C26.91 40.3 27.4 40.92 28 41.39C27.63 41.58 27.27 41.81 26.95 42.07L25.47 43.03C25.35 42.97 25.22 42.9 25.07 42.86C24.09 42.48 23.04 42.26 21.99 42.26C20.95 42.26 19.88 42.45 18.9 42.86C17.89 43.27 16.97 43.86 16.16 44.67C15.2 45.64 14.48 46.77 13.98 47.96C13.49 49.16 13.26 50.44 13.26 51.7C13.26 52.96 13.49 54.24 13.98 55.44C14.48 56.64 15.2 57.77 16.16 58.73L19 61.57C19 61.57 19.02 61.59 19.05 61.61C19.05 61.61 19.13 61.72 19.2 61.78L29.49 72.08C29.66 72.25 29.87 72.38 30.09 72.48C30.3 72.57 30.54 72.61 30.77 72.61C31.01 72.61 31.24 72.57 31.46 72.48C31.67 72.4 31.88 72.27 32.05 72.08L45.38 58.75C46.34 57.79 47.07 56.66 47.56 55.46C48.05 54.26 48.28 52.98 48.28 51.72C48.28 50.46 48.05 49.18 47.56 47.99C47.07 46.79 46.34 45.66 45.38 44.7C44.57 43.88 43.65 43.29 42.65 42.88C41.64 42.48 40.6 42.28 39.55 42.28C38.5 42.28 37.46 42.48 36.47 42.88C36.22 42.99 35.98 43.09 35.75 43.22L34.74 42.2C34.74 42.2 34.72 42.18 34.7 42.15C34.7 42.15 34.68 42.15 34.66 42.13C34.32 41.83 33.93 41.6 33.53 41.39C33.89 41.09 34.23 40.75 34.49 40.36C34.98 39.63 35.26 38.78 35.26 37.84C35.26 37.22 35.13 36.62 34.89 36.09C34.55 35.3 34.02 34.64 33.31 34.15C33.76 33.83 34.17 33.42 34.47 32.97C34.96 32.24 35.24 31.39 35.24 30.45C35.24 30.19 35.21 29.96 35.17 29.7C35.49 29.68 35.79 29.64 36.09 29.6C37.33 29.43 38.55 29.13 39.63 28.68Z" fill="#000000" fill-opacity="1.000000" fill-rule="nonzero"/>
</svg>
