<svg viewBox="0 0 24 24" xmlns="http://www.w3.org/2000/svg" xmlns:xlink="http://www.w3.org/1999/xlink" width="24.000000" height="24.000000" fill="none">
	<rect id="001-return" width="24.000000" height="24.000000" x="0.000000" y="0.000000" fill="rgb(255,255,255)" fill-opacity="0" />
	<g id="Group">
		<path id="Vector" d="M11.8123 0.000103796C9.39427 0.000103796 7.08373 0.699519 5.11172 2.00272L5.24109 1.0658C5.31192 0.552895 4.95352 0.0796968 4.44062 0.00891621C3.92809 -0.0618643 3.45456 0.296492 3.38374 0.809393L2.92877 4.10439C2.87369 4.50329 3.07952 4.89287 3.44017 5.07212C3.80087 5.25136 4.23568 5.18026 4.52035 4.89554C6.46808 2.94781 9.05776 1.87513 11.8123 1.87513C17.5116 1.87513 22.1247 6.4874 22.1247 12.1875C22.1247 12.7053 22.5444 13.125 23.0622 13.125C23.58 13.125 23.9997 12.7053 23.9997 12.1875C23.9997 5.45194 18.5489 0.000103796 11.8123 0.000103796Z" fill="rgb(0,0,0)" fill-rule="nonzero" />
		<path id="Vector" d="M20.5595 18.9279C20.1988 18.7486 19.764 18.8197 19.4793 19.1044C17.5315 21.0522 14.9419 22.1249 12.1874 22.1249C6.48791 22.1249 1.87498 17.5125 1.87498 11.8125C1.87498 11.2947 1.45527 10.875 0.937491 10.875C0.419715 10.875 0 11.2947 0 11.8125C0 18.5481 5.45081 23.9999 12.1874 23.9999C14.6054 23.9999 16.916 23.3005 18.888 21.9972L18.7586 22.9342C18.6878 23.4471 19.0462 23.9203 19.5591 23.9911C20.0718 24.0619 20.5452 23.7036 20.616 23.1907L21.0709 19.8956C21.126 19.4966 20.9202 19.1071 20.5595 18.9279Z" fill="rgb(0,0,0)" fill-rule="nonzero" />
		<path id="Vector" d="M15.7499 18.5624C17.3007 18.5624 18.5624 17.3007 18.5624 15.7499L18.5624 8.24997C18.5624 6.69917 17.3007 5.4375 15.7499 5.4375L8.24997 5.4375C6.69917 5.4375 5.4375 6.69917 5.4375 8.24997L5.4375 15.7499C5.4375 17.3007 6.69917 18.5624 8.24997 18.5624L15.7499 18.5624ZM7.31248 15.7499L7.31248 8.24997C7.31248 7.73304 7.73304 7.31248 8.24997 7.31248L11.0624 7.31248L11.0624 10.125C11.0624 10.6427 11.4822 11.0624 11.9999 11.0624C12.5177 11.0624 12.9374 10.6427 12.9374 10.125L12.9374 7.31248L15.7499 7.31248C16.2668 7.31248 16.6874 7.73304 16.6874 8.24997L16.6874 15.7499C16.6874 16.2668 16.2668 16.6874 15.7499 16.6874L8.24997 16.6874C7.73309 16.6874 7.31248 16.2668 7.31248 15.7499Z" fill="rgb(0,0,0)" fill-rule="nonzero" />
	</g>
</svg>
