<svg width="139.000000" height="49.000000" viewBox="0 0 139 49" fill="none" xmlns="http://www.w3.org/2000/svg" xmlns:xlink="http://www.w3.org/1999/xlink">
	<desc>
			Created with Pixso.
	</desc>
	<defs/>
	<path id="Vector" d="M99.55 6.53C101.89 8.86 101.89 12.65 99.55 14.99C97.21 17.32 93.41 17.32 91.07 14.99C88.73 12.65 88.73 8.86 91.07 6.53C93.41 4.19 97.21 4.19 99.55 6.53Z" fill="#F5D6D4" fill-opacity="1.000000" fill-rule="evenodd"/>
	<path id="Vector" d="M35.52 10.29C27.22 10.29 22.31 17.03 22.31 25.3C22.31 33.62 27.22 40.36 35.52 40.36C43.86 40.36 49.13 33.62 49.13 25.3C49.13 17.03 43.86 10.29 35.52 10.29ZM35.52 39.87C28.98 39.87 25.46 33.35 25.46 25.3C25.46 17.26 28.98 10.74 35.52 10.74C42.1 10.74 45.98 17.26 45.98 25.3C45.98 33.35 42.1 39.87 35.52 39.87Z" fill="#000000" fill-opacity="1.000000" fill-rule="nonzero"/>
	<path id="Vector" d="M81.05 40.36C87.54 40.36 90.38 37.12 90.38 37.12L90.38 24.99C90.42 23.51 91.14 23.38 92.32 23.38L92.32 23.15L75.59 23.15L75 27.55L75.36 27.55C75.36 27.55 76.44 23.55 80.41 23.55L86.54 23.55C86.94 23.55 87.22 24.18 87.26 25.04L87.26 38.07C85.95 39.06 84.02 39.87 81.04 39.87C74.46 39.87 70.27 33.35 70.27 25.3C70.27 17.26 73.78 10.74 80.32 10.74C84.42 10.74 86.32 12.44 88.07 15.19C88.57 15.91 88.39 17.3 87.44 17.93L87.58 18.16L92.13 15.37L92 15.19C91.72 15.37 91.09 15.64 89.97 14.42C87.62 11.86 85.28 10.29 80.32 10.29C72.03 10.29 67.11 17.03 67.11 25.3C67.12 33.62 72.71 40.36 81.05 40.36Z" fill="#000000" fill-opacity="1.000000" fill-rule="nonzero"/>
	<path id="Vector" d="M80.82 47.74C71.89 47.74 67.97 41.17 65.49 32C65.49 32 60.22 12.59 60.13 12.41C56.84 1.61 48.59 0 42.96 0C36.19 0 32 4.09 30.92 6.83L31.32 7.1C33.08 4.04 37.1 1.25 42.91 1.25C48.55 1.25 52.33 3.86 54.86 8.13C55.4 9.03 56.3 10.78 55.44 14.2L48.86 38.43C48.45 39.91 47.64 40.09 46.56 40.09L46.47 40.32L51.12 40.32L51.21 40.09C50.03 40.09 49.36 39.86 49.72 38.38C49.72 38.38 56.12 14.83 56.84 12.26C57.07 12.85 57.24 13.48 57.43 14.11L60.81 26.33L53.05 26.33L52.81 27.19L61.03 27.19C62.61 33.08 62.79 33.8 62.79 33.8C66.48 47.06 75 49 80.82 49C88.89 49 91.96 43.69 92.85 42.16L92.41 41.89C90.6 44.9 86.68 47.74 80.82 47.74Z" fill="#000000" fill-opacity="1.000000" fill-rule="nonzero"/>
	<path id="Vector" d="M13.25 23.51C12.21 23.19 3.37 20.76 3.37 16.4C3.37 11.68 7.83 10.69 10.05 10.69C15.82 10.69 17.85 16.94 17.85 17.66L18.34 17.66L18.34 11.23L17.85 11.23C17.85 11.95 17.85 12.45 17.85 12.85C16.81 11.9 14.33 10.24 9.82 10.24C5.67 10.25 0.18 11.5 0.18 16.72C0.18 19.59 1.67 21.75 6.4 24C10 25.76 17.44 26.79 17.44 32.59C17.44 37.35 14.92 39.87 9.55 39.87C4.68 39.87 0.54 34.61 0.54 31.74L0 31.74L0 38.21L0.54 38.21C0.54 37.16 0.54 36.77 0.54 36.63C0.54 36.63 3.01 40.27 9.51 40.27C16 40.27 21.05 37.35 21.05 32.23C21.05 27.77 18.79 25.44 13.25 23.51Z" fill="#000000" fill-opacity="1.000000" fill-rule="nonzero"/>
	<path id="Vector" d="M51.12 33.33L49.71 38.39C49.72 38.39 50.3 36.31 51.12 33.33Z" fill="#000000" fill-opacity="1.000000" fill-rule="nonzero"/>
	<path id="Vector" d="M107.69 39.91L99.26 39.91C98.81 39.91 98.63 39.24 98.63 38.38L98.63 21.84L101.6 21.84C106.11 21.84 105.93 25.13 105.93 25.13L106.37 25.13L106.37 18.02L105.93 18.02C105.93 18.02 106.11 21.35 101.6 21.35L98.63 21.35L98.63 12.22C98.63 11.37 98.76 10.74 99.26 10.74L107.69 10.74C111.61 10.74 112.65 14.74 112.65 14.74L113.09 14.74L112.46 10.29L93.58 10.29L93.58 10.52C94.7 10.52 95.42 10.7 95.47 12.18L95.47 38.43C95.42 39.92 94.7 40.09 93.58 40.09L93.58 40.32L98.13 40.32L112.46 40.32L113.09 35.92L112.65 35.92C112.65 35.91 111.61 39.91 107.69 39.91Z" fill="#000000" fill-opacity="1.000000" fill-rule="nonzero"/>
	<path id="Vector" d="M51.12 33.33L52.81 27.19L52.78 27.19C52.19 29.4 51.61 31.53 51.12 33.33Z" fill="#000000" fill-opacity="1.000000" fill-rule="nonzero"/>
	<path id="Vector" d="M115.19 10.25C115.19 10.25 122.77 10.2 123.4 10.2C134.94 10.2 139 12.9 139 18.87C139 22.92 136.88 25.93 130.07 27.05L135.84 38.47C136.61 40 137.46 40.18 138.64 40.18L138.73 40.41L131.74 40.41L131.6 40.18C132.78 40.18 133.41 40 132.69 38.52L127.1 27.41C125.97 27.5 124.71 27.55 123.4 27.55C122.72 27.55 121.33 27.55 120.29 27.55L120.29 38.52C120.34 40.05 121.06 40.22 122.23 40.22L122.23 40.45L115.2 40.45L115.2 40.22C116.37 40.22 117.09 40.04 117.14 38.56L117.14 12.13C117.09 10.65 116.37 10.47 115.2 10.47L115.2 10.25L115.19 10.25ZM120.96 10.69C120.47 10.69 120.33 11.32 120.29 12.18L120.29 27.11L120.87 27.11C132.28 27.11 135.79 23.64 135.79 18.92C135.79 13.57 132.01 10.69 120.96 10.69Z" fill="#000000" fill-opacity="1.000000" fill-rule="nonzero"/>
</svg>
